<svg width="717" height="453" viewBox="0 0 717 453" fill="none" xmlns="http://www.w3.org/2000/svg">
<path d="M9 25.6C9 16.6392 9 12.1587 10.7439 8.73615C12.2779 5.72556 14.7256 3.27787 17.7362 1.7439C21.1587 0 25.6392 0 34.6 0H682.4C691.361 0 695.841 0 699.264 1.7439C702.274 3.27787 704.722 5.72556 706.256 8.73615C708 12.1587 708 16.6392 708 25.6V49H9V25.6Z" fill="white"/>
<g filter="url(#filter0_d_129_17)">
<path d="M9 48H708V414.4C708 423.361 708 427.841 706.256 431.264C704.722 434.274 702.274 436.722 699.264 438.256C695.841 440 691.361 440 682.4 440H34.6C25.6392 440 21.1587 440 17.7362 438.256C14.7256 436.722 12.2779 434.274 10.7439 431.264C9 427.841 9 423.361 9 414.4V48Z" fill="#252525" fill-opacity="0.7" shape-rendering="crispEdges"/>
</g>
<defs>
<filter id="filter0_d_129_17" x="0.7" y="43.7" width="715.6" height="408.6" filterUnits="userSpaceOnUse" color-interpolation-filters="sRGB">
<feFlood flood-opacity="0" result="BackgroundImageFix"/>
<feColorMatrix in="SourceAlpha" type="matrix" values="0 0 0 0 0 0 0 0 0 0 0 0 0 0 0 0 0 0 127 0" result="hardAlpha"/>
<feOffset dy="4"/>
<feGaussianBlur stdDeviation="4.15"/>
<feComposite in2="hardAlpha" operator="out"/>
<feColorMatrix type="matrix" values="0 0 0 0 0 0 0 0 0 0 0 0 0 0 0 0 0 0 0.25 0"/>
<feBlend mode="normal" in2="BackgroundImageFix" result="effect1_dropShadow_129_17"/>
<feBlend mode="normal" in="SourceGraphic" in2="effect1_dropShadow_129_17" result="shape"/>
</filter>
</defs>
</svg>
