<svg width="717" height="457" viewBox="0 0 717 457" fill="none" xmlns="http://www.w3.org/2000/svg">
<path d="M9 29.6C9 20.6392 9 16.1587 10.7439 12.7362C12.2779 9.72556 14.7256 7.27787 17.7362 5.7439C21.1587 4 25.6392 4 34.6 4H682.4C691.361 4 695.841 4 699.264 5.7439C702.274 7.27787 704.722 9.72556 706.256 12.7362C708 16.1587 708 20.6392 708 29.6V53H9V29.6Z" fill="white"/>
<path d="M39.0727 15.1H40.9227V16.95H39.0727V15.1ZM37.2227 15.1H39.0727V16.95H37.2227V15.1ZM35.3727 15.1H37.2227V16.95H35.3727V15.1ZM35.3727 16.95H37.2227V18.8H35.3727V16.95ZM33.5227 16.95H35.3727V18.8H33.5227V16.95ZM33.5227 18.8H35.3727V20.65H33.5227V18.8ZM31.6727 18.8H33.5227V20.65H31.6727V18.8ZM31.6727 20.65H33.5227V22.5H31.6727V20.65ZM31.6727 22.5H33.5227V24.35H31.6727V22.5ZM29.8227 22.5H31.6727V24.35H29.8227V22.5ZM29.8227 24.35H31.6727V26.2H29.8227V24.35ZM29.8227 26.2H31.6727V28.05H29.8227V26.2ZM29.8227 28.05H31.6727V29.9H29.8227V28.05ZM29.8227 29.9H31.6727V31.75H29.8227V29.9ZM31.6727 29.9H33.5227V31.75H31.6727V29.9ZM31.6727 31.75H33.5227V33.6H31.6727V31.75ZM33.5227 33.6H35.3727V35.45H33.5227V33.6ZM35.3727 33.6H37.2227V35.45H35.3727V33.6ZM35.3727 35.45H37.2227V37.3H35.3727V35.45ZM37.2227 35.45H39.0727V37.3H37.2227V35.45ZM37.2227 37.3H39.0727V39.15H37.2227V37.3ZM39.0727 37.3H40.9227V39.15H39.0727V37.3ZM40.9227 37.3H42.7727V39.15H40.9227V37.3ZM42.7727 37.3H44.6227V39.15H42.7727V37.3ZM44.6227 37.3H46.4727V39.15H44.6227V37.3ZM46.4727 37.3H48.3227V39.15H46.4727V37.3ZM48.3227 37.3H50.1727V39.15H48.3227V37.3ZM50.1727 35.45H52.0227V37.3H50.1727V35.45ZM52.0227 35.45H53.8727V37.3H52.0227V35.45ZM52.0227 33.6H53.8727V35.45H52.0227V33.6ZM52.0227 18.8H53.8727V20.65H52.0227V18.8ZM50.1727 16.95H52.0227V18.8H50.1727V16.95ZM48.3227 16.95H50.1727V18.8H48.3227V16.95ZM48.3227 15.1H50.1727V16.95H48.3227V15.1ZM46.4727 15.1H48.3227V16.95H46.4727V15.1ZM44.6227 13.25H46.4727V15.1H44.6227V13.25ZM42.7727 13.25H44.6227V15.1H42.7727V13.25ZM40.9227 13.25H42.7727V15.1H40.9227V13.25ZM39.0727 13.25H40.9227V15.1H39.0727V13.25ZM33.5227 20.65H35.3727V22.5H33.5227V20.65ZM31.6727 24.35H33.5227V26.2H31.6727V24.35ZM31.6727 26.2H33.5227V28.05H31.6727V26.2ZM31.6727 28.05H33.5227V29.9H31.6727V28.05ZM31.6727 33.6H33.5227V35.45H31.6727V33.6ZM33.5227 35.45H35.3727V37.3H33.5227V35.45ZM35.3727 37.3H37.2227V39.15H35.3727V37.3ZM39.0727 39.15H40.9227V41H39.0727V39.15ZM40.9227 39.15H42.7727V41H40.9227V39.15ZM42.7727 39.15H44.6227V41H42.7727V39.15ZM44.6227 39.15H46.4727V41H44.6227V39.15ZM46.4727 39.15H48.3227V41H46.4727V39.15ZM50.1727 37.3H52.0227V39.15H50.1727V37.3ZM53.8727 33.6H55.7227V35.45H53.8727V33.6ZM53.8727 31.75H55.7227V33.6H53.8727V31.75ZM52.0227 31.75H53.8727V33.6H52.0227V31.75ZM52.0227 20.65H53.8727V22.5H52.0227V20.65ZM50.1727 18.8H52.0227V20.65H50.1727V18.8ZM53.8727 18.8H55.7227V20.65H53.8727V18.8ZM52.0227 16.95H53.8727V18.8H52.0227V16.95ZM50.1727 15.1H52.0227V16.95H50.1727V15.1ZM46.4727 13.25H48.3227V15.1H46.4727V13.25ZM44.6227 15.1H46.4727V16.95H44.6227V15.1ZM42.7727 15.1H44.6227V16.95H42.7727V15.1ZM40.9227 15.1H42.7727V16.95H40.9227V15.1ZM37.2227 16.95H39.0727V18.8H37.2227V16.95ZM35.3727 18.8H37.2227V20.65H35.3727V18.8ZM33.5227 22.5H35.3727V24.35H33.5227V22.5ZM33.5227 31.75H35.3727V33.6H33.5227V31.75ZM50.1727 33.6H52.0227V35.45H50.1727V33.6ZM48.3227 35.45H50.1727V37.3H48.3227V35.45ZM33.5227 29.9H35.3727V31.75H33.5227V29.9ZM59.018 22.5H60.868V24.35H59.018V22.5ZM60.868 22.5H62.718V24.35H60.868V22.5ZM60.868 24.35H62.718V26.2H60.868V24.35ZM60.868 26.2H62.718V28.05H60.868V26.2ZM60.868 28.05H62.718V29.9H60.868V28.05ZM60.868 29.9H62.718V31.75H60.868V29.9ZM60.868 31.75H62.718V33.6H60.868V31.75ZM60.868 33.6H62.718V35.45H60.868V33.6ZM60.868 35.45H62.718V37.3H60.868V35.45ZM60.868 37.3H62.718V39.15H60.868V37.3ZM60.868 39.15H62.718V41H60.868V39.15ZM59.018 39.15H60.868V41H59.018V39.15ZM59.018 37.3H60.868V39.15H59.018V37.3ZM59.018 35.45H60.868V37.3H59.018V35.45ZM59.018 33.6H60.868V35.45H59.018V33.6ZM59.018 31.75H60.868V33.6H59.018V31.75ZM59.018 29.9H60.868V31.75H59.018V29.9ZM59.018 28.05H60.868V29.9H59.018V28.05ZM59.018 26.2H60.868V28.05H59.018V26.2ZM59.018 24.35H60.868V26.2H59.018V24.35ZM62.718 26.2H64.568V28.05H62.718V26.2ZM64.568 24.35H66.418V26.2H64.568V24.35ZM66.418 24.35H68.268V26.2H66.418V24.35ZM66.418 22.5H68.268V24.35H66.418V22.5ZM68.268 22.5H70.118V24.35H68.268V22.5ZM70.118 22.5H71.968V24.35H70.118V22.5ZM62.718 24.35H64.568V26.2H62.718V24.35ZM64.568 22.5H66.418V24.35H64.568V22.5ZM68.268 24.35H70.118V26.2H68.268V24.35ZM70.118 24.35H71.968V26.2H70.118V24.35ZM71.968 24.35H73.818V26.2H71.968V24.35ZM70.118 26.2H71.968V28.05H70.118V26.2ZM74.5912 29.9H76.4412V31.75H74.5912V29.9ZM74.5912 31.75H76.4412V33.6H74.5912V31.75ZM76.4412 35.45H78.2912V37.3H76.4412V35.45ZM76.4412 33.6H78.2912V35.45H76.4412V33.6ZM76.4412 31.75H78.2912V33.6H76.4412V31.75ZM76.4412 29.9H78.2912V31.75H76.4412V29.9ZM76.4412 28.05H78.2912V29.9H76.4412V28.05ZM76.4412 26.2H78.2912V28.05H76.4412V26.2ZM80.1412 22.5H81.9912V24.35H80.1412V22.5ZM81.9912 22.5H83.8412V24.35H81.9912V22.5ZM83.8412 22.5H85.6912V24.35H83.8412V22.5ZM83.8412 24.35H85.6912V26.2H83.8412V24.35ZM85.6912 24.35H87.5412V26.2H85.6912V24.35ZM78.2912 24.35H80.1412V26.2H78.2912V24.35ZM80.1412 24.35H81.9912V26.2H80.1412V24.35ZM81.9912 24.35H83.8412V26.2H81.9912V24.35ZM78.2912 26.2H80.1412V28.05H78.2912V26.2ZM85.6912 22.5H87.5412V24.35H85.6912V22.5ZM87.5412 24.35H89.3912V26.2H87.5412V24.35ZM89.3912 26.2H91.2412V28.05H89.3912V26.2ZM89.3912 28.05H91.2412V29.9H89.3912V28.05ZM89.3912 29.9H91.2412V31.75H89.3912V29.9ZM89.3912 31.75H91.2412V33.6H89.3912V31.75ZM87.5412 31.75H89.3912V33.6H87.5412V31.75ZM85.6912 31.75H87.5412V33.6H85.6912V31.75ZM83.8412 31.75H85.6912V33.6H83.8412V31.75ZM81.9912 31.75H83.8412V33.6H81.9912V31.75ZM80.1412 31.75H81.9912V33.6H80.1412V31.75ZM78.2912 29.9H80.1412V31.75H78.2912V29.9ZM80.1412 29.9H81.9912V31.75H80.1412V29.9ZM81.9912 29.9H83.8412V31.75H81.9912V29.9ZM83.8412 29.9H85.6912V31.75H83.8412V29.9ZM85.6912 29.9H87.5412V31.75H85.6912V29.9ZM87.5412 29.9H89.3912V31.75H87.5412V29.9ZM78.2912 31.75H80.1412V33.6H78.2912V31.75ZM76.4412 37.3H78.2912V39.15H76.4412V37.3ZM78.2912 37.3H80.1412V39.15H78.2912V37.3ZM78.2912 35.45H80.1412V37.3H78.2912V35.45ZM80.1412 39.15H81.9912V41H80.1412V39.15ZM80.1412 37.3H81.9912V39.15H80.1412V37.3ZM81.9912 39.15H83.8412V41H81.9912V39.15ZM83.8412 39.15H85.6912V41H83.8412V39.15ZM83.8412 37.3H85.6912V39.15H83.8412V37.3ZM81.9912 37.3H83.8412V39.15H81.9912V37.3ZM85.6912 37.3H87.5412V39.15H85.6912V37.3ZM85.6912 39.15H87.5412V41H85.6912V39.15ZM87.5412 37.3H89.3912V39.15H87.5412V37.3ZM89.3912 37.3H91.2412V39.15H89.3912V37.3ZM89.3912 24.35H91.2412V26.2H89.3912V24.35ZM87.5412 26.2H89.3912V28.05H87.5412V26.2ZM91.2412 28.05H93.0912V29.9H91.2412V28.05ZM91.2412 29.9H93.0912V31.75H91.2412V29.9ZM74.5912 28.05H76.4412V29.9H74.5912V28.05ZM76.4412 24.35H78.2912V26.2H76.4412V24.35ZM87.5412 35.45H89.3912V37.3H87.5412V35.45ZM89.3912 35.45H91.2412V37.3H89.3912V35.45ZM91.2412 35.45H93.0912V37.3H91.2412V35.45ZM74.5912 33.6H76.4412V35.45H74.5912V33.6ZM81.9912 18.8H83.8412V20.65H81.9912V18.8ZM83.8412 16.95H85.6912V18.8H83.8412V16.95ZM85.6912 15.1H87.5412V16.95H85.6912V15.1ZM83.8412 18.8H85.6912V20.65H83.8412V18.8ZM85.6912 16.95H87.5412V18.8H85.6912V16.95ZM87.5412 15.1H89.3912V16.95H87.5412V15.1ZM95.4398 29.9H97.2898V31.75H95.4398V29.9ZM95.4398 31.75H97.2898V33.6H95.4398V31.75ZM97.2898 35.45H99.1398V37.3H97.2898V35.45ZM97.2898 33.6H99.1398V35.45H97.2898V33.6ZM97.2898 31.75H99.1398V33.6H97.2898V31.75ZM97.2898 29.9H99.1398V31.75H97.2898V29.9ZM97.2898 28.05H99.1398V29.9H97.2898V28.05ZM97.2898 26.2H99.1398V28.05H97.2898V26.2ZM100.99 22.5H102.84V24.35H100.99V22.5ZM102.84 22.5H104.69V24.35H102.84V22.5ZM104.69 22.5H106.54V24.35H104.69V22.5ZM104.69 24.35H106.54V26.2H104.69V24.35ZM106.54 24.35H108.39V26.2H106.54V24.35ZM99.1398 24.35H100.99V26.2H99.1398V24.35ZM100.99 24.35H102.84V26.2H100.99V24.35ZM102.84 24.35H104.69V26.2H102.84V24.35ZM99.1398 26.2H100.99V28.05H99.1398V26.2ZM106.54 22.5H108.39V24.35H106.54V22.5ZM108.39 24.35H110.24V26.2H108.39V24.35ZM110.24 26.2H112.09V28.05H110.24V26.2ZM110.24 28.05H112.09V29.9H110.24V28.05ZM110.24 29.9H112.09V31.75H110.24V29.9ZM110.24 31.75H112.09V33.6H110.24V31.75ZM108.39 31.75H110.24V33.6H108.39V31.75ZM106.54 31.75H108.39V33.6H106.54V31.75ZM104.69 31.75H106.54V33.6H104.69V31.75ZM102.84 31.75H104.69V33.6H102.84V31.75ZM100.99 31.75H102.84V33.6H100.99V31.75ZM99.1398 29.9H100.99V31.75H99.1398V29.9ZM100.99 29.9H102.84V31.75H100.99V29.9ZM102.84 29.9H104.69V31.75H102.84V29.9ZM104.69 29.9H106.54V31.75H104.69V29.9ZM106.54 29.9H108.39V31.75H106.54V29.9ZM108.39 29.9H110.24V31.75H108.39V29.9ZM99.1398 31.75H100.99V33.6H99.1398V31.75ZM97.2898 37.3H99.1398V39.15H97.2898V37.3ZM99.1398 37.3H100.99V39.15H99.1398V37.3ZM99.1398 35.45H100.99V37.3H99.1398V35.45ZM100.99 39.15H102.84V41H100.99V39.15ZM100.99 37.3H102.84V39.15H100.99V37.3ZM102.84 39.15H104.69V41H102.84V39.15ZM104.69 39.15H106.54V41H104.69V39.15ZM104.69 37.3H106.54V39.15H104.69V37.3ZM102.84 37.3H104.69V39.15H102.84V37.3ZM106.54 37.3H108.39V39.15H106.54V37.3ZM106.54 39.15H108.39V41H106.54V39.15ZM108.39 37.3H110.24V39.15H108.39V37.3ZM110.24 37.3H112.09V39.15H110.24V37.3ZM110.24 24.35H112.09V26.2H110.24V24.35ZM108.39 26.2H110.24V28.05H108.39V26.2ZM112.09 28.05H113.94V29.9H112.09V28.05ZM112.09 29.9H113.94V31.75H112.09V29.9ZM95.4398 28.05H97.2898V29.9H95.4398V28.05ZM97.2898 24.35H99.1398V26.2H97.2898V24.35ZM108.39 35.45H110.24V37.3H108.39V35.45ZM110.24 35.45H112.09V37.3H110.24V35.45ZM112.09 35.45H113.94V37.3H112.09V35.45ZM95.4398 33.6H97.2898V35.45H95.4398V33.6ZM139.211 22.5H141.061V24.35H139.211V22.5ZM141.061 22.5H142.911V24.35H141.061V22.5ZM141.061 24.35H142.911V26.2H141.061V24.35ZM141.061 26.2H142.911V28.05H141.061V26.2ZM141.061 28.05H142.911V29.9H141.061V28.05ZM141.061 29.9H142.911V31.75H141.061V29.9ZM141.061 31.75H142.911V33.6H141.061V31.75ZM141.061 33.6H142.911V35.45H141.061V33.6ZM141.061 35.45H142.911V37.3H141.061V35.45ZM141.061 37.3H142.911V39.15H141.061V37.3ZM141.061 39.15H142.911V41H141.061V39.15ZM139.211 39.15H141.061V41H139.211V39.15ZM139.211 37.3H141.061V39.15H139.211V37.3ZM139.211 35.45H141.061V37.3H139.211V35.45ZM139.211 33.6H141.061V35.45H139.211V33.6ZM139.211 31.75H141.061V33.6H139.211V31.75ZM139.211 29.9H141.061V31.75H139.211V29.9ZM139.211 28.05H141.061V29.9H139.211V28.05ZM139.211 26.2H141.061V28.05H139.211V26.2ZM139.211 24.35H141.061V26.2H139.211V24.35ZM137.361 35.45H139.211V37.3H137.361V35.45ZM137.361 37.3H139.211V39.15H137.361V37.3ZM135.511 37.3H137.361V39.15H135.511V37.3ZM133.661 37.3H135.511V39.15H133.661V37.3ZM131.811 37.3H133.661V39.15H131.811V37.3ZM131.811 39.15H133.661V41H131.811V39.15ZM133.661 39.15H135.511V41H133.661V39.15ZM135.511 39.15H137.361V41H135.511V39.15ZM129.961 37.3H131.811V39.15H129.961V37.3ZM128.111 37.3H129.961V39.15H128.111V37.3ZM128.111 35.45H129.961V37.3H128.111V35.45ZM128.111 33.6H129.961V35.45H128.111V33.6ZM128.111 31.75H129.961V33.6H128.111V31.75ZM128.111 29.9H129.961V31.75H128.111V29.9ZM128.111 28.05H129.961V29.9H128.111V28.05ZM128.111 26.2H129.961V28.05H128.111V26.2ZM128.111 24.35H129.961V26.2H128.111V24.35ZM128.111 22.5H129.961V24.35H128.111V22.5ZM126.261 22.5H128.111V24.35H126.261V22.5ZM126.261 24.35H128.111V26.2H126.261V24.35ZM126.261 26.2H128.111V28.05H126.261V26.2ZM126.261 28.05H128.111V29.9H126.261V28.05ZM126.261 29.9H128.111V31.75H126.261V29.9ZM126.261 31.75H128.111V33.6H126.261V31.75ZM126.261 33.6H128.111V35.45H126.261V33.6ZM126.261 35.45H128.111V37.3H126.261V35.45ZM129.961 39.15H131.811V41H129.961V39.15ZM129.961 35.45H131.811V37.3H129.961V35.45ZM147.146 22.5H148.996V24.35H147.146V22.5ZM148.996 22.5H150.846V24.35H148.996V22.5ZM148.996 24.35H150.846V26.2H148.996V24.35ZM148.996 26.2H150.846V28.05H148.996V26.2ZM148.996 28.05H150.846V29.9H148.996V28.05ZM148.996 29.9H150.846V31.75H148.996V29.9ZM148.996 31.75H150.846V33.6H148.996V31.75ZM148.996 33.6H150.846V35.45H148.996V33.6ZM148.996 35.45H150.846V37.3H148.996V35.45ZM148.996 37.3H150.846V39.15H148.996V37.3ZM148.996 39.15H150.846V41H148.996V39.15ZM147.146 31.75H148.996V33.6H147.146V31.75ZM147.146 29.9H148.996V31.75H147.146V29.9ZM147.146 28.05H148.996V29.9H147.146V28.05ZM147.146 26.2H148.996V28.05H147.146V26.2ZM147.146 24.35H148.996V26.2H147.146V24.35ZM147.146 33.6H148.996V35.45H147.146V33.6ZM147.146 35.45H148.996V37.3H147.146V35.45ZM147.146 37.3H148.996V39.15H147.146V37.3ZM147.146 39.15H148.996V41H147.146V39.15ZM150.846 26.2H152.696V28.05H150.846V26.2ZM150.846 24.35H152.696V26.2H150.846V24.35ZM152.696 24.35H154.546V26.2H152.696V24.35ZM152.696 22.5H154.546V24.35H152.696V22.5ZM154.546 22.5H156.396V24.35H154.546V22.5ZM156.396 22.5H158.246V24.35H156.396V22.5ZM156.396 24.35H158.246V26.2H156.396V24.35ZM158.246 24.35H160.096V26.2H158.246V24.35ZM158.246 26.2H160.096V28.05H158.246V26.2ZM160.096 26.2H161.946V28.05H160.096V26.2ZM160.096 28.05H161.946V29.9H160.096V28.05ZM160.096 29.9H161.946V31.75H160.096V29.9ZM160.096 31.75H161.946V33.6H160.096V31.75ZM160.096 33.6H161.946V35.45H160.096V33.6ZM160.096 35.45H161.946V37.3H160.096V35.45ZM160.096 37.3H161.946V39.15H160.096V37.3ZM160.096 39.15H161.946V41H160.096V39.15ZM161.946 39.15H163.796V41H161.946V39.15ZM161.946 37.3H163.796V39.15H161.946V37.3ZM161.946 35.45H163.796V37.3H161.946V35.45ZM161.946 33.6H163.796V35.45H161.946V33.6ZM161.946 31.75H163.796V33.6H161.946V31.75ZM161.946 29.9H163.796V31.75H161.946V29.9ZM161.946 28.05H163.796V29.9H161.946V28.05ZM160.096 24.35H161.946V26.2H160.096V24.35ZM158.246 22.5H160.096V24.35H158.246V22.5ZM154.546 24.35H156.396V26.2H154.546V24.35ZM161.946 26.2H163.796V28.05H161.946V26.2ZM168.031 29.9H169.881V31.75H168.031V29.9ZM168.031 31.75H169.881V33.6H168.031V31.75ZM169.881 35.45H171.731V37.3H169.881V35.45ZM169.881 33.6H171.731V35.45H169.881V33.6ZM169.881 31.75H171.731V33.6H169.881V31.75ZM169.881 29.9H171.731V31.75H169.881V29.9ZM169.881 28.05H171.731V29.9H169.881V28.05ZM169.881 26.2H171.731V28.05H169.881V26.2ZM173.581 22.5H175.431V24.35H173.581V22.5ZM175.431 22.5H177.281V24.35H175.431V22.5ZM177.281 22.5H179.131V24.35H177.281V22.5ZM177.281 24.35H179.131V26.2H177.281V24.35ZM179.131 24.35H180.981V26.2H179.131V24.35ZM171.731 24.35H173.581V26.2H171.731V24.35ZM173.581 24.35H175.431V26.2H173.581V24.35ZM175.431 24.35H177.281V26.2H175.431V24.35ZM171.731 26.2H173.581V28.05H171.731V26.2ZM179.131 22.5H180.981V24.35H179.131V22.5ZM180.981 24.35H182.831V26.2H180.981V24.35ZM182.831 26.2H184.681V28.05H182.831V26.2ZM182.831 28.05H184.681V29.9H182.831V28.05ZM182.831 29.9H184.681V31.75H182.831V29.9ZM182.831 31.75H184.681V33.6H182.831V31.75ZM180.981 31.75H182.831V33.6H180.981V31.75ZM179.131 31.75H180.981V33.6H179.131V31.75ZM177.281 31.75H179.131V33.6H177.281V31.75ZM175.431 31.75H177.281V33.6H175.431V31.75ZM173.581 31.75H175.431V33.6H173.581V31.75ZM171.731 29.9H173.581V31.75H171.731V29.9ZM173.581 29.9H175.431V31.75H173.581V29.9ZM175.431 29.9H177.281V31.75H175.431V29.9ZM177.281 29.9H179.131V31.75H177.281V29.9ZM179.131 29.9H180.981V31.75H179.131V29.9ZM180.981 29.9H182.831V31.75H180.981V29.9ZM171.731 31.75H173.581V33.6H171.731V31.75ZM169.881 37.3H171.731V39.15H169.881V37.3ZM171.731 37.3H173.581V39.15H171.731V37.3ZM171.731 35.45H173.581V37.3H171.731V35.45ZM173.581 39.15H175.431V41H173.581V39.15ZM173.581 37.3H175.431V39.15H173.581V37.3ZM175.431 39.15H177.281V41H175.431V39.15ZM177.281 39.15H179.131V41H177.281V39.15ZM177.281 37.3H179.131V39.15H177.281V37.3ZM175.431 37.3H177.281V39.15H175.431V37.3ZM179.131 37.3H180.981V39.15H179.131V37.3ZM179.131 39.15H180.981V41H179.131V39.15ZM180.981 37.3H182.831V39.15H180.981V37.3ZM182.831 37.3H184.681V39.15H182.831V37.3ZM182.831 24.35H184.681V26.2H182.831V24.35ZM180.981 26.2H182.831V28.05H180.981V26.2ZM184.681 28.05H186.531V29.9H184.681V28.05ZM184.681 29.9H186.531V31.75H184.681V29.9ZM168.031 28.05H169.881V29.9H168.031V28.05ZM169.881 24.35H171.731V26.2H169.881V24.35ZM180.981 35.45H182.831V37.3H180.981V35.45ZM182.831 35.45H184.681V37.3H182.831V35.45ZM184.681 35.45H186.531V37.3H184.681V35.45ZM168.031 33.6H169.881V35.45H168.031V33.6ZM198.852 22.5H200.702V24.35H198.852V22.5ZM200.702 22.5H202.552V24.35H200.702V22.5ZM200.702 24.35H202.552V26.2H200.702V24.35ZM200.702 26.2H202.552V28.05H200.702V26.2ZM200.702 31.75H202.552V33.6H200.702V31.75ZM200.702 33.6H202.552V35.45H200.702V33.6ZM200.702 35.45H202.552V37.3H200.702V35.45ZM200.702 37.3H202.552V39.15H200.702V37.3ZM200.702 39.15H202.552V41H200.702V39.15ZM200.702 41H202.552V42.85H200.702V41ZM200.702 42.85H202.552V44.7H200.702V42.85ZM200.702 44.7H202.552V46.55H200.702V44.7ZM200.702 46.55H202.552V48.4H200.702V46.55ZM198.852 44.7H200.702V46.55H198.852V44.7ZM198.852 42.85H200.702V44.7H198.852V42.85ZM198.852 41H200.702V42.85H198.852V41ZM198.852 39.15H200.702V41H198.852V39.15ZM198.852 37.3H200.702V39.15H198.852V37.3ZM198.852 35.45H200.702V37.3H198.852V35.45ZM198.852 33.6H200.702V35.45H198.852V33.6ZM198.852 31.75H200.702V33.6H198.852V31.75ZM198.852 29.9H200.702V31.75H198.852V29.9ZM198.852 28.05H200.702V29.9H198.852V28.05ZM198.852 26.2H200.702V28.05H198.852V26.2ZM198.852 24.35H200.702V26.2H198.852V24.35ZM200.702 28.05H202.552V29.9H200.702V28.05ZM200.702 29.9H202.552V31.75H200.702V29.9ZM198.852 46.55H200.702V48.4H198.852V46.55ZM202.552 26.2H204.402V28.05H202.552V26.2ZM202.552 24.35H204.402V26.2H202.552V24.35ZM204.402 24.35H206.252V26.2H204.402V24.35ZM206.252 24.35H208.102V26.2H206.252V24.35ZM206.252 22.5H208.102V24.35H206.252V22.5ZM208.102 22.5H209.952V24.35H208.102V22.5ZM209.952 22.5H211.802V24.35H209.952V22.5ZM209.952 24.35H211.802V26.2H209.952V24.35ZM211.802 24.35H213.652V26.2H211.802V24.35ZM213.652 26.2H215.502V28.05H213.652V26.2ZM213.652 28.05H215.502V29.9H213.652V28.05ZM215.502 29.9H217.352V31.75H215.502V29.9ZM215.502 31.75H217.352V33.6H215.502V31.75ZM215.502 33.6H217.352V35.45H215.502V33.6ZM213.652 33.6H215.502V35.45H213.652V33.6ZM215.502 28.05H217.352V29.9H215.502V28.05ZM213.652 35.45H215.502V37.3H213.652V35.45ZM211.802 37.3H213.652V39.15H211.802V37.3ZM209.952 39.15H211.802V41H209.952V39.15ZM208.102 39.15H209.952V41H208.102V39.15ZM206.252 39.15H208.102V41H206.252V39.15ZM206.252 37.3H208.102V39.15H206.252V37.3ZM208.102 37.3H209.952V39.15H208.102V37.3ZM209.952 37.3H211.802V39.15H209.952V37.3ZM211.802 35.45H213.652V37.3H211.802V35.45ZM204.402 37.3H206.252V39.15H204.402V37.3ZM202.552 37.3H204.402V39.15H202.552V37.3ZM202.552 35.45H204.402V37.3H202.552V35.45ZM208.102 24.35H209.952V26.2H208.102V24.35ZM211.802 26.2H213.652V28.05H211.802V26.2ZM213.652 29.9H215.502V31.75H213.652V29.9ZM213.652 31.75H215.502V33.6H213.652V31.75ZM204.402 39.15H206.252V41H204.402V39.15ZM204.402 22.5H206.252V24.35H204.402V22.5ZM213.652 24.35H215.502V26.2H213.652V24.35ZM213.652 37.3H215.502V39.15H213.652V37.3ZM220.459 26.2H222.309V28.05H220.459V26.2ZM222.309 26.2H224.159V28.05H222.309V26.2ZM222.309 28.05H224.159V29.9H222.309V28.05ZM224.159 26.2H226.009V28.05H224.159V26.2ZM224.159 24.35H226.009V26.2H224.159V24.35ZM226.009 24.35H227.859V26.2H226.009V24.35ZM227.859 24.35H229.709V26.2H227.859V24.35ZM227.859 22.5H229.709V24.35H227.859V22.5ZM226.009 22.5H227.859V24.35H226.009V22.5ZM222.309 24.35H224.159V26.2H222.309V24.35ZM229.709 24.35H231.559V26.2H229.709V24.35ZM231.559 24.35H233.409V26.2H231.559V24.35ZM229.709 22.5H231.559V24.35H229.709V22.5ZM231.559 26.2H233.409V28.05H231.559V26.2ZM233.409 26.2H235.259V28.05H233.409V26.2ZM233.409 28.05H235.259V29.9H233.409V28.05ZM233.409 29.9H235.259V31.75H233.409V29.9ZM233.409 31.75H235.259V33.6H233.409V31.75ZM233.409 33.6H235.259V35.45H233.409V33.6ZM233.409 35.45H235.259V37.3H233.409V35.45ZM231.559 29.9H233.409V31.75H231.559V29.9ZM231.559 28.05H233.409V29.9H231.559V28.05ZM231.559 31.75H233.409V33.6H231.559V31.75ZM231.559 35.45H233.409V37.3H231.559V35.45ZM233.409 37.3H235.259V39.15H233.409V37.3ZM233.409 39.15H235.259V41H233.409V39.15ZM235.259 39.15H237.109V41H235.259V39.15ZM235.259 37.3H237.109V39.15H235.259V37.3ZM231.559 37.3H233.409V39.15H231.559V37.3ZM229.709 37.3H231.559V39.15H229.709V37.3ZM227.859 39.15H229.709V41H227.859V39.15ZM226.009 39.15H227.859V41H226.009V39.15ZM224.159 39.15H226.009V41H224.159V39.15ZM220.459 35.45H222.309V37.3H220.459V35.45ZM222.309 33.6H224.159V35.45H222.309V33.6ZM222.309 31.75H224.159V33.6H222.309V31.75ZM224.159 31.75H226.009V33.6H224.159V31.75ZM226.009 31.75H227.859V33.6H226.009V31.75ZM227.859 31.75H229.709V33.6H227.859V31.75ZM227.859 29.9H229.709V31.75H227.859V29.9ZM229.709 29.9H231.559V31.75H229.709V29.9ZM226.009 29.9H227.859V31.75H226.009V29.9ZM222.309 35.45H224.159V37.3H222.309V35.45ZM224.159 37.3H226.009V39.15H224.159V37.3ZM229.709 39.15H231.559V41H229.709V39.15ZM224.159 33.6H226.009V35.45H224.159V33.6ZM231.559 33.6H233.409V35.45H231.559V33.6ZM220.459 37.3H222.309V39.15H220.459V37.3ZM222.309 37.3H224.159V39.15H222.309V37.3ZM222.309 39.15H224.159V41H222.309V39.15ZM220.459 33.6H222.309V35.45H220.459V33.6ZM240.188 22.5H242.038V24.35H240.188V22.5ZM242.038 22.5H243.888V24.35H242.038V22.5ZM242.038 24.35H243.888V26.2H242.038V24.35ZM242.038 26.2H243.888V28.05H242.038V26.2ZM242.038 28.05H243.888V29.9H242.038V28.05ZM242.038 29.9H243.888V31.75H242.038V29.9ZM242.038 31.75H243.888V33.6H242.038V31.75ZM242.038 33.6H243.888V35.45H242.038V33.6ZM242.038 35.45H243.888V37.3H242.038V35.45ZM242.038 37.3H243.888V39.15H242.038V37.3ZM242.038 39.15H243.888V41H242.038V39.15ZM240.188 39.15H242.038V41H240.188V39.15ZM240.188 37.3H242.038V39.15H240.188V37.3ZM240.188 35.45H242.038V37.3H240.188V35.45ZM240.188 33.6H242.038V35.45H240.188V33.6ZM240.188 31.75H242.038V33.6H240.188V31.75ZM240.188 29.9H242.038V31.75H240.188V29.9ZM240.188 28.05H242.038V29.9H240.188V28.05ZM240.188 26.2H242.038V28.05H240.188V26.2ZM240.188 24.35H242.038V26.2H240.188V24.35ZM243.888 26.2H245.738V28.05H243.888V26.2ZM245.738 24.35H247.588V26.2H245.738V24.35ZM247.588 24.35H249.438V26.2H247.588V24.35ZM247.588 22.5H249.438V24.35H247.588V22.5ZM249.438 22.5H251.288V24.35H249.438V22.5ZM251.288 22.5H253.138V24.35H251.288V22.5ZM243.888 24.35H245.738V26.2H243.888V24.35ZM245.738 22.5H247.588V24.35H245.738V22.5ZM249.438 24.35H251.288V26.2H249.438V24.35ZM251.288 24.35H253.138V26.2H251.288V24.35ZM253.138 24.35H254.988V26.2H253.138V24.35ZM251.288 26.2H253.138V28.05H251.288V26.2ZM259.461 18.8H261.311V20.65H259.461V18.8ZM259.461 20.65H261.311V22.5H259.461V20.65ZM259.461 22.5H261.311V24.35H259.461V22.5ZM259.461 24.35H261.311V26.2H259.461V24.35ZM259.461 26.2H261.311V28.05H259.461V26.2ZM259.461 28.05H261.311V29.9H259.461V28.05ZM259.461 29.9H261.311V31.75H259.461V29.9ZM259.461 31.75H261.311V33.6H259.461V31.75ZM259.461 33.6H261.311V35.45H259.461V33.6ZM259.461 35.45H261.311V37.3H259.461V35.45ZM257.611 35.45H259.461V37.3H257.611V35.45ZM257.611 33.6H259.461V35.45H257.611V33.6ZM257.611 31.75H259.461V33.6H257.611V31.75ZM257.611 29.9H259.461V31.75H257.611V29.9ZM257.611 28.05H259.461V29.9H257.611V28.05ZM257.611 26.2H259.461V28.05H257.611V26.2ZM257.611 24.35H259.461V26.2H257.611V24.35ZM257.611 22.5H259.461V24.35H257.611V22.5ZM255.761 22.5H257.611V24.35H255.761V22.5ZM255.761 24.35H257.611V26.2H255.761V24.35ZM261.311 22.5H263.161V24.35H261.311V22.5ZM263.161 22.5H265.011V24.35H263.161V22.5ZM265.011 22.5H266.861V24.35H265.011V22.5ZM265.011 24.35H266.861V26.2H265.011V24.35ZM263.161 24.35H265.011V26.2H263.161V24.35ZM261.311 24.35H263.161V26.2H261.311V24.35ZM263.161 37.3H265.011V39.15H263.161V37.3ZM261.311 39.15H263.161V41H261.311V39.15ZM259.461 37.3H261.311V39.15H259.461V37.3ZM257.611 37.3H259.461V39.15H257.611V37.3ZM259.461 39.15H261.311V41H259.461V39.15ZM263.161 39.15H265.011V41H263.161V39.15ZM261.311 37.3H263.161V39.15H261.311V37.3ZM263.161 35.45H265.011V37.3H263.161V35.45ZM265.011 37.3H266.861V39.15H265.011V37.3ZM257.611 20.65H259.461V22.5H257.611V20.65ZM274.059 22.5H275.909V24.35H274.059V22.5ZM272.209 22.5H274.059V24.35H272.209V22.5ZM274.059 24.35H275.909V26.2H274.059V24.35ZM274.059 26.2H275.909V28.05H274.059V26.2ZM272.209 26.2H274.059V28.05H272.209V26.2ZM272.209 28.05H274.059V29.9H272.209V28.05ZM272.209 29.9H274.059V31.75H272.209V29.9ZM272.209 31.75H274.059V33.6H272.209V31.75ZM272.209 33.6H274.059V35.45H272.209V33.6ZM272.209 35.45H274.059V37.3H272.209V35.45ZM272.209 37.3H274.059V39.15H272.209V37.3ZM272.209 39.15H274.059V41H272.209V39.15ZM274.059 37.3H275.909V39.15H274.059V37.3ZM274.059 35.45H275.909V37.3H274.059V35.45ZM274.059 33.6H275.909V35.45H274.059V33.6ZM274.059 29.9H275.909V31.75H274.059V29.9ZM274.059 28.05H275.909V29.9H274.059V28.05ZM272.209 24.35H274.059V26.2H272.209V24.35ZM274.059 31.75H275.909V33.6H274.059V31.75ZM274.059 39.15H275.909V41H274.059V39.15ZM272.209 16.95H274.059V18.8H272.209V16.95ZM274.059 16.95H275.909V18.8H274.059V16.95ZM274.059 15.1H275.909V16.95H274.059V15.1ZM272.209 15.1H274.059V16.95H272.209V15.1ZM278.778 29.9H280.628V31.75H278.778V29.9ZM278.778 31.75H280.628V33.6H278.778V31.75ZM280.628 35.45H282.478V37.3H280.628V35.45ZM280.628 33.6H282.478V35.45H280.628V33.6ZM280.628 31.75H282.478V33.6H280.628V31.75ZM280.628 29.9H282.478V31.75H280.628V29.9ZM280.628 28.05H282.478V29.9H280.628V28.05ZM280.628 26.2H282.478V28.05H280.628V26.2ZM284.328 22.5H286.178V24.35H284.328V22.5ZM286.178 22.5H288.028V24.35H286.178V22.5ZM288.028 22.5H289.878V24.35H288.028V22.5ZM288.028 24.35H289.878V26.2H288.028V24.35ZM289.878 24.35H291.728V26.2H289.878V24.35ZM282.478 24.35H284.328V26.2H282.478V24.35ZM284.328 24.35H286.178V26.2H284.328V24.35ZM286.178 24.35H288.028V26.2H286.178V24.35ZM282.478 26.2H284.328V28.05H282.478V26.2ZM289.878 22.5H291.728V24.35H289.878V22.5ZM291.728 24.35H293.578V26.2H291.728V24.35ZM293.578 26.2H295.428V28.05H293.578V26.2ZM293.578 28.05H295.428V29.9H293.578V28.05ZM293.578 29.9H295.428V31.75H293.578V29.9ZM293.578 31.75H295.428V33.6H293.578V31.75ZM291.728 31.75H293.578V33.6H291.728V31.75ZM289.878 31.75H291.728V33.6H289.878V31.75ZM288.028 31.75H289.878V33.6H288.028V31.75ZM286.178 31.75H288.028V33.6H286.178V31.75ZM284.328 31.75H286.178V33.6H284.328V31.75ZM282.478 29.9H284.328V31.75H282.478V29.9ZM284.328 29.9H286.178V31.75H284.328V29.9ZM286.178 29.9H288.028V31.75H286.178V29.9ZM288.028 29.9H289.878V31.75H288.028V29.9ZM289.878 29.9H291.728V31.75H289.878V29.9ZM291.728 29.9H293.578V31.75H291.728V29.9ZM282.478 31.75H284.328V33.6H282.478V31.75ZM280.628 37.3H282.478V39.15H280.628V37.3ZM282.478 37.3H284.328V39.15H282.478V37.3ZM282.478 35.45H284.328V37.3H282.478V35.45ZM284.328 39.15H286.178V41H284.328V39.15ZM284.328 37.3H286.178V39.15H284.328V37.3ZM286.178 39.15H288.028V41H286.178V39.15ZM288.028 39.15H289.878V41H288.028V39.15ZM288.028 37.3H289.878V39.15H288.028V37.3ZM286.178 37.3H288.028V39.15H286.178V37.3ZM289.878 37.3H291.728V39.15H289.878V37.3ZM289.878 39.15H291.728V41H289.878V39.15ZM291.728 37.3H293.578V39.15H291.728V37.3ZM293.578 37.3H295.428V39.15H293.578V37.3ZM293.578 24.35H295.428V26.2H293.578V24.35ZM291.728 26.2H293.578V28.05H291.728V26.2ZM295.428 28.05H297.278V29.9H295.428V28.05ZM295.428 29.9H297.278V31.75H295.428V29.9ZM278.778 28.05H280.628V29.9H278.778V28.05ZM280.628 24.35H282.478V26.2H280.628V24.35ZM291.728 35.45H293.578V37.3H291.728V35.45ZM293.578 35.45H295.428V37.3H293.578V35.45ZM295.428 35.45H297.278V37.3H295.428V35.45ZM278.778 33.6H280.628V35.45H278.778V33.6Z" fill="black"/>
<g filter="url(#filter0_d_300_23)">
<path d="M9 52H708V418.4C708 427.361 708 431.841 706.256 435.264C704.722 438.274 702.274 440.722 699.264 442.256C695.841 444 691.361 444 682.4 444H34.6C25.6392 444 21.1587 444 17.7362 442.256C14.7256 440.722 12.2779 438.274 10.7439 435.264C9 431.841 9 427.361 9 418.4V52Z" fill="#252525" fill-opacity="0.7" shape-rendering="crispEdges"/>
</g>
<defs>
<filter id="filter0_d_300_23" x="0.7" y="47.7" width="715.6" height="408.6" filterUnits="userSpaceOnUse" color-interpolation-filters="sRGB">
<feFlood flood-opacity="0" result="BackgroundImageFix"/>
<feColorMatrix in="SourceAlpha" type="matrix" values="0 0 0 0 0 0 0 0 0 0 0 0 0 0 0 0 0 0 127 0" result="hardAlpha"/>
<feOffset dy="4"/>
<feGaussianBlur stdDeviation="4.15"/>
<feComposite in2="hardAlpha" operator="out"/>
<feColorMatrix type="matrix" values="0 0 0 0 0 0 0 0 0 0 0 0 0 0 0 0 0 0 0.25 0"/>
<feBlend mode="normal" in2="BackgroundImageFix" result="effect1_dropShadow_300_23"/>
<feBlend mode="normal" in="SourceGraphic" in2="effect1_dropShadow_300_23" result="shape"/>
</filter>
</defs>
</svg>
