<svg width="717" height="457" viewBox="0 0 717 457" fill="none" xmlns="http://www.w3.org/2000/svg">
<path d="M9 29.6C9 20.6392 9 16.1587 10.7439 12.7362C12.2779 9.72556 14.7256 7.27787 17.7362 5.7439C21.1587 4 25.6392 4 34.6 4H682.4C691.361 4 695.841 4 699.264 5.7439C702.274 7.27787 704.722 9.72556 706.256 12.7362C708 16.1587 708 20.6392 708 29.6V53H9V29.6Z" fill="white"/>
<path d="M31.6727 13.25H33.5227V15.1H31.6727V13.25ZM31.6727 15.1H33.5227V16.95H31.6727V15.1ZM31.6727 16.95H33.5227V18.8H31.6727V16.95ZM31.6727 20.65H33.5227V22.5H31.6727V20.65ZM31.6727 24.35H33.5227V26.2H31.6727V24.35ZM31.6727 28.05H33.5227V29.9H31.6727V28.05ZM31.6727 29.9H33.5227V31.75H31.6727V29.9ZM31.6727 31.75H33.5227V33.6H31.6727V31.75ZM31.6727 33.6H33.5227V35.45H31.6727V33.6ZM31.6727 35.45H33.5227V37.3H31.6727V35.45ZM31.6727 37.3H33.5227V39.15H31.6727V37.3ZM31.6727 39.15H33.5227V41H31.6727V39.15ZM29.8227 29.9H31.6727V31.75H29.8227V29.9ZM29.8227 28.05H31.6727V29.9H29.8227V28.05ZM29.8227 26.2H31.6727V28.05H29.8227V26.2ZM29.8227 24.35H31.6727V26.2H29.8227V24.35ZM29.8227 22.5H31.6727V24.35H29.8227V22.5ZM29.8227 20.65H31.6727V22.5H29.8227V20.65ZM29.8227 18.8H31.6727V20.65H29.8227V18.8ZM29.8227 16.95H31.6727V18.8H29.8227V16.95ZM29.8227 15.1H31.6727V16.95H29.8227V15.1ZM29.8227 13.25H31.6727V15.1H29.8227V13.25ZM31.6727 22.5H33.5227V24.35H31.6727V22.5ZM31.6727 26.2H33.5227V28.05H31.6727V26.2ZM29.8227 31.75H31.6727V33.6H29.8227V31.75ZM29.8227 33.6H31.6727V35.45H29.8227V33.6ZM29.8227 35.45H31.6727V37.3H29.8227V35.45ZM29.8227 37.3H31.6727V39.15H29.8227V37.3ZM29.8227 39.15H31.6727V41H29.8227V39.15ZM33.5227 26.2H35.3727V28.05H33.5227V26.2ZM35.3727 26.2H37.2227V28.05H35.3727V26.2ZM37.2227 26.2H39.0727V28.05H37.2227V26.2ZM39.0727 26.2H40.9227V28.05H39.0727V26.2ZM40.9227 26.2H42.7727V28.05H40.9227V26.2ZM42.7727 26.2H44.6227V28.05H42.7727V26.2ZM42.7727 24.35H44.6227V26.2H42.7727V24.35ZM44.6227 24.35H46.4727V26.2H44.6227V24.35ZM44.6227 22.5H46.4727V24.35H44.6227V22.5ZM44.6227 20.65H46.4727V22.5H44.6227V20.65ZM44.6227 18.8H46.4727V20.65H44.6227V18.8ZM46.4727 18.8H48.3227V20.65H46.4727V18.8ZM44.6227 16.95H46.4727V18.8H44.6227V16.95ZM42.7727 15.1H44.6227V16.95H42.7727V15.1ZM40.9227 13.25H42.7727V15.1H40.9227V13.25ZM39.0727 13.25H40.9227V15.1H39.0727V13.25ZM37.2227 13.25H39.0727V15.1H37.2227V13.25ZM35.3727 13.25H37.2227V15.1H35.3727V13.25ZM33.5227 13.25H35.3727V15.1H33.5227V13.25ZM33.5227 15.1H35.3727V16.95H33.5227V15.1ZM35.3727 15.1H37.2227V16.95H35.3727V15.1ZM37.2227 15.1H39.0727V16.95H37.2227V15.1ZM40.9227 15.1H42.7727V16.95H40.9227V15.1ZM42.7727 16.95H44.6227V18.8H42.7727V16.95ZM40.9227 28.05H42.7727V29.9H40.9227V28.05ZM40.9227 29.9H42.7727V31.75H40.9227V29.9ZM42.7727 31.75H44.6227V33.6H42.7727V31.75ZM42.7727 33.6H44.6227V35.45H42.7727V33.6ZM44.6227 35.45H46.4727V37.3H44.6227V35.45ZM46.4727 37.3H48.3227V39.15H46.4727V37.3ZM46.4727 39.15H48.3227V41H46.4727V39.15ZM48.3227 39.15H50.1727V41H48.3227V39.15ZM44.6227 37.3H46.4727V39.15H44.6227V37.3ZM40.9227 31.75H42.7727V33.6H40.9227V31.75ZM39.0727 28.05H40.9227V29.9H39.0727V28.05ZM37.2227 28.05H39.0727V29.9H37.2227V28.05ZM35.3727 28.05H37.2227V29.9H35.3727V28.05ZM33.5227 28.05H35.3727V29.9H33.5227V28.05ZM31.6727 18.8H33.5227V20.65H31.6727V18.8ZM39.0727 15.1H40.9227V16.95H39.0727V15.1ZM46.4727 20.65H48.3227V22.5H46.4727V20.65ZM46.4727 22.5H48.3227V24.35H46.4727V22.5ZM42.7727 35.45H44.6227V37.3H42.7727V35.45ZM40.9227 33.6H42.7727V35.45H40.9227V33.6ZM39.0727 29.9H40.9227V31.75H39.0727V29.9ZM44.6227 39.15H46.4727V41H44.6227V39.15ZM42.7727 37.3H44.6227V39.15H42.7727V37.3ZM44.6227 33.6H46.4727V35.45H44.6227V33.6ZM42.7727 29.9H44.6227V31.75H42.7727V29.9ZM46.4727 16.95H48.3227V18.8H46.4727V16.95ZM44.6227 15.1H46.4727V16.95H44.6227V15.1ZM42.7727 13.25H44.6227V15.1H42.7727V13.25ZM44.6227 26.2H46.4727V28.05H44.6227V26.2ZM46.4727 24.35H48.3227V26.2H46.4727V24.35ZM52.767 29.9H54.617V31.75H52.767V29.9ZM52.767 31.75H54.617V33.6H52.767V31.75ZM54.617 35.45H56.467V37.3H54.617V35.45ZM54.617 33.6H56.467V35.45H54.617V33.6ZM54.617 31.75H56.467V33.6H54.617V31.75ZM54.617 29.9H56.467V31.75H54.617V29.9ZM54.617 28.05H56.467V29.9H54.617V28.05ZM54.617 26.2H56.467V28.05H54.617V26.2ZM58.317 22.5H60.167V24.35H58.317V22.5ZM60.167 22.5H62.017V24.35H60.167V22.5ZM62.017 22.5H63.867V24.35H62.017V22.5ZM62.017 24.35H63.867V26.2H62.017V24.35ZM63.867 24.35H65.717V26.2H63.867V24.35ZM56.467 24.35H58.317V26.2H56.467V24.35ZM58.317 24.35H60.167V26.2H58.317V24.35ZM60.167 24.35H62.017V26.2H60.167V24.35ZM56.467 26.2H58.317V28.05H56.467V26.2ZM63.867 22.5H65.717V24.35H63.867V22.5ZM65.717 24.35H67.567V26.2H65.717V24.35ZM67.567 26.2H69.417V28.05H67.567V26.2ZM67.567 28.05H69.417V29.9H67.567V28.05ZM67.567 29.9H69.417V31.75H67.567V29.9ZM67.567 31.75H69.417V33.6H67.567V31.75ZM65.717 31.75H67.567V33.6H65.717V31.75ZM63.867 31.75H65.717V33.6H63.867V31.75ZM62.017 31.75H63.867V33.6H62.017V31.75ZM60.167 31.75H62.017V33.6H60.167V31.75ZM58.317 31.75H60.167V33.6H58.317V31.75ZM56.467 29.9H58.317V31.75H56.467V29.9ZM58.317 29.9H60.167V31.75H58.317V29.9ZM60.167 29.9H62.017V31.75H60.167V29.9ZM62.017 29.9H63.867V31.75H62.017V29.9ZM63.867 29.9H65.717V31.75H63.867V29.9ZM65.717 29.9H67.567V31.75H65.717V29.9ZM56.467 31.75H58.317V33.6H56.467V31.75ZM54.617 37.3H56.467V39.15H54.617V37.3ZM56.467 37.3H58.317V39.15H56.467V37.3ZM56.467 35.45H58.317V37.3H56.467V35.45ZM58.317 39.15H60.167V41H58.317V39.15ZM58.317 37.3H60.167V39.15H58.317V37.3ZM60.167 39.15H62.017V41H60.167V39.15ZM62.017 39.15H63.867V41H62.017V39.15ZM62.017 37.3H63.867V39.15H62.017V37.3ZM60.167 37.3H62.017V39.15H60.167V37.3ZM63.867 37.3H65.717V39.15H63.867V37.3ZM63.867 39.15H65.717V41H63.867V39.15ZM65.717 37.3H67.567V39.15H65.717V37.3ZM67.567 37.3H69.417V39.15H67.567V37.3ZM67.567 24.35H69.417V26.2H67.567V24.35ZM65.717 26.2H67.567V28.05H65.717V26.2ZM69.417 28.05H71.267V29.9H69.417V28.05ZM69.417 29.9H71.267V31.75H69.417V29.9ZM52.767 28.05H54.617V29.9H52.767V28.05ZM54.617 24.35H56.467V26.2H54.617V24.35ZM65.717 35.45H67.567V37.3H65.717V35.45ZM67.567 35.45H69.417V37.3H67.567V35.45ZM69.417 35.45H71.267V37.3H69.417V35.45ZM52.767 33.6H54.617V35.45H52.767V33.6ZM75.4656 22.5H77.3156V24.35H75.4656V22.5ZM77.3156 22.5H79.1656V24.35H77.3156V22.5ZM77.3156 24.35H79.1656V26.2H77.3156V24.35ZM77.3156 26.2H79.1656V28.05H77.3156V26.2ZM77.3156 28.05H79.1656V29.9H77.3156V28.05ZM77.3156 29.9H79.1656V31.75H77.3156V29.9ZM77.3156 31.75H79.1656V33.6H77.3156V31.75ZM77.3156 35.45H79.1656V37.3H77.3156V35.45ZM77.3156 37.3H79.1656V39.15H77.3156V37.3ZM77.3156 39.15H79.1656V41H77.3156V39.15ZM75.4656 39.15H77.3156V41H75.4656V39.15ZM75.4656 37.3H77.3156V39.15H75.4656V37.3ZM75.4656 35.45H77.3156V37.3H75.4656V35.45ZM75.4656 33.6H77.3156V35.45H75.4656V33.6ZM75.4656 29.9H77.3156V31.75H75.4656V29.9ZM75.4656 28.05H77.3156V29.9H75.4656V28.05ZM75.4656 24.35H77.3156V26.2H75.4656V24.35ZM75.4656 26.2H77.3156V28.05H75.4656V26.2ZM77.3156 33.6H79.1656V35.45H77.3156V33.6ZM75.4656 31.75H77.3156V33.6H75.4656V31.75ZM77.3156 41H79.1656V42.85H77.3156V41ZM75.4656 41H77.3156V42.85H75.4656V41ZM75.4656 42.85H77.3156V44.7H75.4656V42.85ZM77.3156 42.85H79.1656V44.7H77.3156V42.85ZM75.4656 44.7H77.3156V46.55H75.4656V44.7ZM75.4656 46.55H77.3156V48.4H75.4656V46.55ZM77.3156 44.7H79.1656V46.55H77.3156V44.7ZM73.6156 44.7H75.4656V46.55H73.6156V44.7ZM71.7656 44.7H73.6156V46.55H71.7656V44.7ZM71.7656 46.55H73.6156V48.4H71.7656V46.55ZM73.6156 46.55H75.4656V48.4H73.6156V46.55ZM69.9156 44.7H71.7656V46.55H69.9156V44.7ZM71.7656 42.85H73.6156V44.7H71.7656V42.85ZM75.4656 15.1H77.3156V16.95H75.4656V15.1ZM75.4656 16.95H77.3156V18.8H75.4656V16.95ZM77.3156 16.95H79.1656V18.8H77.3156V16.95ZM77.3156 15.1H79.1656V16.95H77.3156V15.1ZM89.4346 22.5H91.2846V24.35H89.4346V22.5ZM87.5846 22.5H89.4346V24.35H87.5846V22.5ZM85.7346 24.35H87.5846V26.2H85.7346V24.35ZM83.8846 24.35H85.7346V26.2H83.8846V24.35ZM83.8846 26.2H85.7346V28.05H83.8846V26.2ZM83.8846 28.05H85.7346V29.9H83.8846V28.05ZM82.0346 28.05H83.8846V29.9H82.0346V28.05ZM82.0346 29.9H83.8846V31.75H82.0346V29.9ZM82.0346 31.75H83.8846V33.6H82.0346V31.75ZM82.0346 33.6H83.8846V35.45H82.0346V33.6ZM83.8846 35.45H85.7346V37.3H83.8846V35.45ZM83.8846 37.3H85.7346V39.15H83.8846V37.3ZM85.7346 37.3H87.5846V39.15H85.7346V37.3ZM87.5846 39.15H89.4346V41H87.5846V39.15ZM91.2846 39.15H93.1346V41H91.2846V39.15ZM83.8846 33.6H85.7346V35.45H83.8846V33.6ZM83.8846 31.75H85.7346V33.6H83.8846V31.75ZM83.8846 29.9H85.7346V31.75H83.8846V29.9ZM89.4346 39.15H91.2846V41H89.4346V39.15ZM91.2846 22.5H93.1346V24.35H91.2846V22.5ZM91.2846 24.35H93.1346V26.2H91.2846V24.35ZM93.1346 24.35H94.9846V26.2H93.1346V24.35ZM94.9846 26.2H96.8346V28.05H94.9846V26.2ZM89.4346 24.35H91.2846V26.2H89.4346V24.35ZM87.5846 24.35H89.4346V26.2H87.5846V24.35ZM85.7346 26.2H87.5846V28.05H85.7346V26.2ZM94.9846 35.45H96.8346V37.3H94.9846V35.45ZM94.9846 37.3H96.8346V39.15H94.9846V37.3ZM93.1346 37.3H94.9846V39.15H93.1346V37.3ZM85.7346 35.45H87.5846V37.3H85.7346V35.45ZM87.5846 37.3H89.4346V39.15H87.5846V37.3ZM89.4346 37.3H91.2846V39.15H89.4346V37.3ZM91.2846 37.3H93.1346V39.15H91.2846V37.3ZM96.8346 28.05H98.6846V29.9H96.8346V28.05ZM96.8346 29.9H98.6846V31.75H96.8346V29.9ZM96.8346 31.75H98.6846V33.6H96.8346V31.75ZM96.8346 33.6H98.6846V35.45H96.8346V33.6ZM94.9846 24.35H96.8346V26.2H94.9846V24.35ZM98.6846 28.05H100.535V29.9H98.6846V28.05ZM98.6846 29.9H100.535V31.75H98.6846V29.9ZM98.6846 31.75H100.535V33.6H98.6846V31.75ZM98.6846 33.6H100.535V35.45H98.6846V33.6ZM96.8346 35.45H98.6846V37.3H96.8346V35.45ZM93.1346 39.15H94.9846V41H93.1346V39.15ZM93.1346 22.5H94.9846V24.35H93.1346V22.5ZM96.8346 26.2H98.6846V28.05H96.8346V26.2ZM96.8346 37.3H98.6846V39.15H96.8346V37.3ZM96.8346 24.35H98.6846V26.2H96.8346V24.35ZM106.836 22.5H108.686V24.35H106.836V22.5ZM104.986 22.5H106.836V24.35H104.986V22.5ZM106.836 24.35H108.686V26.2H106.836V24.35ZM106.836 26.2H108.686V28.05H106.836V26.2ZM104.986 26.2H106.836V28.05H104.986V26.2ZM104.986 28.05H106.836V29.9H104.986V28.05ZM104.986 29.9H106.836V31.75H104.986V29.9ZM104.986 31.75H106.836V33.6H104.986V31.75ZM104.986 33.6H106.836V35.45H104.986V33.6ZM104.986 35.45H106.836V37.3H104.986V35.45ZM104.986 37.3H106.836V39.15H104.986V37.3ZM104.986 39.15H106.836V41H104.986V39.15ZM106.836 37.3H108.686V39.15H106.836V37.3ZM106.836 35.45H108.686V37.3H106.836V35.45ZM106.836 33.6H108.686V35.45H106.836V33.6ZM106.836 29.9H108.686V31.75H106.836V29.9ZM106.836 28.05H108.686V29.9H106.836V28.05ZM104.986 24.35H106.836V26.2H104.986V24.35ZM106.836 31.75H108.686V33.6H106.836V31.75ZM106.836 39.15H108.686V41H106.836V39.15ZM104.986 16.95H106.836V18.8H104.986V16.95ZM106.836 16.95H108.686V18.8H106.836V16.95ZM106.836 15.1H108.686V16.95H106.836V15.1ZM104.986 15.1H106.836V16.95H104.986V15.1ZM111.555 22.5H113.405V24.35H111.555V22.5ZM113.405 22.5H115.255V24.35H113.405V22.5ZM113.405 24.35H115.255V26.2H113.405V24.35ZM113.405 26.2H115.255V28.05H113.405V26.2ZM113.405 28.05H115.255V29.9H113.405V28.05ZM113.405 29.9H115.255V31.75H113.405V29.9ZM113.405 31.75H115.255V33.6H113.405V31.75ZM113.405 33.6H115.255V35.45H113.405V33.6ZM113.405 35.45H115.255V37.3H113.405V35.45ZM113.405 37.3H115.255V39.15H113.405V37.3ZM113.405 39.15H115.255V41H113.405V39.15ZM111.555 31.75H113.405V33.6H111.555V31.75ZM111.555 29.9H113.405V31.75H111.555V29.9ZM111.555 28.05H113.405V29.9H111.555V28.05ZM111.555 26.2H113.405V28.05H111.555V26.2ZM111.555 24.35H113.405V26.2H111.555V24.35ZM111.555 33.6H113.405V35.45H111.555V33.6ZM111.555 35.45H113.405V37.3H111.555V35.45ZM111.555 37.3H113.405V39.15H111.555V37.3ZM111.555 39.15H113.405V41H111.555V39.15ZM115.255 26.2H117.105V28.05H115.255V26.2ZM115.255 24.35H117.105V26.2H115.255V24.35ZM117.105 24.35H118.955V26.2H117.105V24.35ZM117.105 22.5H118.955V24.35H117.105V22.5ZM118.955 22.5H120.805V24.35H118.955V22.5ZM120.805 22.5H122.655V24.35H120.805V22.5ZM120.805 24.35H122.655V26.2H120.805V24.35ZM122.655 24.35H124.505V26.2H122.655V24.35ZM122.655 26.2H124.505V28.05H122.655V26.2ZM124.505 26.2H126.355V28.05H124.505V26.2ZM124.505 28.05H126.355V29.9H124.505V28.05ZM124.505 29.9H126.355V31.75H124.505V29.9ZM124.505 31.75H126.355V33.6H124.505V31.75ZM124.505 33.6H126.355V35.45H124.505V33.6ZM124.505 35.45H126.355V37.3H124.505V35.45ZM124.505 37.3H126.355V39.15H124.505V37.3ZM124.505 39.15H126.355V41H124.505V39.15ZM126.355 39.15H128.205V41H126.355V39.15ZM126.355 37.3H128.205V39.15H126.355V37.3ZM126.355 35.45H128.205V37.3H126.355V35.45ZM126.355 33.6H128.205V35.45H126.355V33.6ZM126.355 31.75H128.205V33.6H126.355V31.75ZM126.355 29.9H128.205V31.75H126.355V29.9ZM126.355 28.05H128.205V29.9H126.355V28.05ZM124.505 24.35H126.355V26.2H124.505V24.35ZM122.655 22.5H124.505V24.35H122.655V22.5ZM118.955 24.35H120.805V26.2H118.955V24.35ZM126.355 26.2H128.205V28.05H126.355V26.2ZM139.84 22.5H141.69V24.35H139.84V22.5ZM137.99 22.5H139.84V24.35H137.99V22.5ZM136.14 24.35H137.99V26.2H136.14V24.35ZM134.29 24.35H136.14V26.2H134.29V24.35ZM134.29 26.2H136.14V28.05H134.29V26.2ZM132.44 28.05H134.29V29.9H132.44V28.05ZM132.44 29.9H134.29V31.75H132.44V29.9ZM132.44 31.75H134.29V33.6H132.44V31.75ZM134.29 35.45H136.14V37.3H134.29V35.45ZM136.14 35.45H137.99V37.3H136.14V35.45ZM136.14 37.3H137.99V39.15H136.14V37.3ZM137.99 39.15H139.84V41H137.99V39.15ZM139.84 39.15H141.69V41H139.84V39.15ZM141.69 39.15H143.54V41H141.69V39.15ZM141.69 37.3H143.54V39.15H141.69V37.3ZM143.54 37.3H145.39V39.15H143.54V37.3ZM145.39 37.3H147.24V39.15H145.39V37.3ZM145.39 35.45H147.24V37.3H145.39V35.45ZM147.24 33.6H149.09V35.45H147.24V33.6ZM147.24 31.75H149.09V33.6H147.24V31.75ZM147.24 29.9H149.09V31.75H147.24V29.9ZM147.24 28.05H149.09V29.9H147.24V28.05ZM147.24 26.2H149.09V28.05H147.24V26.2ZM147.24 24.35H149.09V26.2H147.24V24.35ZM147.24 22.5H149.09V24.35H147.24V22.5ZM147.24 20.65H149.09V22.5H147.24V20.65ZM147.24 18.8H149.09V20.65H147.24V18.8ZM147.24 16.95H149.09V18.8H147.24V16.95ZM147.24 15.1H149.09V16.95H147.24V15.1ZM147.24 13.25H149.09V15.1H147.24V13.25ZM149.09 13.25H150.94V15.1H149.09V13.25ZM149.09 15.1H150.94V16.95H149.09V15.1ZM149.09 16.95H150.94V18.8H149.09V16.95ZM149.09 18.8H150.94V20.65H149.09V18.8ZM149.09 20.65H150.94V22.5H149.09V20.65ZM149.09 22.5H150.94V24.35H149.09V22.5ZM149.09 24.35H150.94V26.2H149.09V24.35ZM149.09 26.2H150.94V28.05H149.09V26.2ZM149.09 28.05H150.94V29.9H149.09V28.05ZM149.09 29.9H150.94V31.75H149.09V29.9ZM147.24 35.45H149.09V37.3H147.24V35.45ZM149.09 35.45H150.94V37.3H149.09V35.45ZM149.09 37.3H150.94V39.15H149.09V37.3ZM149.09 39.15H150.94V41H149.09V39.15ZM149.09 33.6H150.94V35.45H149.09V33.6ZM149.09 31.75H150.94V33.6H149.09V31.75ZM147.24 37.3H149.09V39.15H147.24V37.3ZM147.24 39.15H149.09V41H147.24V39.15ZM134.29 28.05H136.14V29.9H134.29V28.05ZM134.29 29.9H136.14V31.75H134.29V29.9ZM134.29 31.75H136.14V33.6H134.29V31.75ZM134.29 37.3H136.14V39.15H134.29V37.3ZM137.99 37.3H139.84V39.15H137.99V37.3ZM139.84 37.3H141.69V39.15H139.84V37.3ZM141.69 22.5H143.54V24.35H141.69V22.5ZM143.54 24.35H145.39V26.2H143.54V24.35ZM145.39 24.35H147.24V26.2H145.39V24.35ZM141.69 24.35H143.54V26.2H141.69V24.35ZM139.84 24.35H141.69V26.2H139.84V24.35ZM137.99 24.35H139.84V26.2H137.99V24.35ZM136.14 26.2H137.99V28.05H136.14V26.2ZM145.39 26.2H147.24V28.05H145.39V26.2ZM132.44 33.6H134.29V35.45H132.44V33.6ZM134.29 33.6H136.14V35.45H134.29V33.6ZM154.047 22.5H155.897V24.35H154.047V22.5ZM155.897 22.5H157.747V24.35H155.897V22.5ZM155.897 24.35H157.747V26.2H155.897V24.35ZM155.897 26.2H157.747V28.05H155.897V26.2ZM155.897 28.05H157.747V29.9H155.897V28.05ZM155.897 29.9H157.747V31.75H155.897V29.9ZM155.897 31.75H157.747V33.6H155.897V31.75ZM155.897 33.6H157.747V35.45H155.897V33.6ZM155.897 35.45H157.747V37.3H155.897V35.45ZM155.897 37.3H157.747V39.15H155.897V37.3ZM155.897 39.15H157.747V41H155.897V39.15ZM154.047 39.15H155.897V41H154.047V39.15ZM154.047 37.3H155.897V39.15H154.047V37.3ZM154.047 35.45H155.897V37.3H154.047V35.45ZM154.047 33.6H155.897V35.45H154.047V33.6ZM154.047 31.75H155.897V33.6H154.047V31.75ZM154.047 29.9H155.897V31.75H154.047V29.9ZM154.047 28.05H155.897V29.9H154.047V28.05ZM154.047 26.2H155.897V28.05H154.047V26.2ZM154.047 24.35H155.897V26.2H154.047V24.35ZM157.747 26.2H159.597V28.05H157.747V26.2ZM159.597 24.35H161.447V26.2H159.597V24.35ZM161.447 24.35H163.297V26.2H161.447V24.35ZM161.447 22.5H163.297V24.35H161.447V22.5ZM163.297 22.5H165.147V24.35H163.297V22.5ZM165.147 22.5H166.997V24.35H165.147V22.5ZM157.747 24.35H159.597V26.2H157.747V24.35ZM159.597 22.5H161.447V24.35H159.597V22.5ZM163.297 24.35H165.147V26.2H163.297V24.35ZM165.147 24.35H166.997V26.2H165.147V24.35ZM166.997 24.35H168.847V26.2H166.997V24.35ZM165.147 26.2H166.997V28.05H165.147V26.2ZM169.621 29.9H171.471V31.75H169.621V29.9ZM169.621 31.75H171.471V33.6H169.621V31.75ZM171.471 35.45H173.321V37.3H171.471V35.45ZM171.471 33.6H173.321V35.45H171.471V33.6ZM171.471 31.75H173.321V33.6H171.471V31.75ZM171.471 29.9H173.321V31.75H171.471V29.9ZM171.471 28.05H173.321V29.9H171.471V28.05ZM171.471 26.2H173.321V28.05H171.471V26.2ZM175.171 22.5H177.021V24.35H175.171V22.5ZM177.021 22.5H178.871V24.35H177.021V22.5ZM178.871 22.5H180.721V24.35H178.871V22.5ZM178.871 24.35H180.721V26.2H178.871V24.35ZM180.721 24.35H182.571V26.2H180.721V24.35ZM173.321 24.35H175.171V26.2H173.321V24.35ZM175.171 24.35H177.021V26.2H175.171V24.35ZM177.021 24.35H178.871V26.2H177.021V24.35ZM173.321 26.2H175.171V28.05H173.321V26.2ZM180.721 22.5H182.571V24.35H180.721V22.5ZM182.571 24.35H184.421V26.2H182.571V24.35ZM184.421 26.2H186.271V28.05H184.421V26.2ZM184.421 28.05H186.271V29.9H184.421V28.05ZM184.421 29.9H186.271V31.75H184.421V29.9ZM184.421 31.75H186.271V33.6H184.421V31.75ZM182.571 31.75H184.421V33.6H182.571V31.75ZM180.721 31.75H182.571V33.6H180.721V31.75ZM178.871 31.75H180.721V33.6H178.871V31.75ZM177.021 31.75H178.871V33.6H177.021V31.75ZM175.171 31.75H177.021V33.6H175.171V31.75ZM173.321 29.9H175.171V31.75H173.321V29.9ZM175.171 29.9H177.021V31.75H175.171V29.9ZM177.021 29.9H178.871V31.75H177.021V29.9ZM178.871 29.9H180.721V31.75H178.871V29.9ZM180.721 29.9H182.571V31.75H180.721V29.9ZM182.571 29.9H184.421V31.75H182.571V29.9ZM173.321 31.75H175.171V33.6H173.321V31.75ZM171.471 37.3H173.321V39.15H171.471V37.3ZM173.321 37.3H175.171V39.15H173.321V37.3ZM173.321 35.45H175.171V37.3H173.321V35.45ZM175.171 39.15H177.021V41H175.171V39.15ZM175.171 37.3H177.021V39.15H175.171V37.3ZM177.021 39.15H178.871V41H177.021V39.15ZM178.871 39.15H180.721V41H178.871V39.15ZM178.871 37.3H180.721V39.15H178.871V37.3ZM177.021 37.3H178.871V39.15H177.021V37.3ZM180.721 37.3H182.571V39.15H180.721V37.3ZM180.721 39.15H182.571V41H180.721V39.15ZM182.571 37.3H184.421V39.15H182.571V37.3ZM184.421 37.3H186.271V39.15H184.421V37.3ZM184.421 24.35H186.271V26.2H184.421V24.35ZM182.571 26.2H184.421V28.05H182.571V26.2ZM186.271 28.05H188.121V29.9H186.271V28.05ZM186.271 29.9H188.121V31.75H186.271V29.9ZM169.621 28.05H171.471V29.9H169.621V28.05ZM171.471 24.35H173.321V26.2H171.471V24.35ZM182.571 35.45H184.421V37.3H182.571V35.45ZM184.421 35.45H186.271V37.3H184.421V35.45ZM186.271 35.45H188.121V37.3H186.271V35.45ZM169.621 33.6H171.471V35.45H169.621V33.6ZM213.392 22.5H215.242V24.35H213.392V22.5ZM215.242 22.5H217.092V24.35H215.242V22.5ZM215.242 24.35H217.092V26.2H215.242V24.35ZM215.242 26.2H217.092V28.05H215.242V26.2ZM215.242 28.05H217.092V29.9H215.242V28.05ZM215.242 29.9H217.092V31.75H215.242V29.9ZM215.242 31.75H217.092V33.6H215.242V31.75ZM215.242 33.6H217.092V35.45H215.242V33.6ZM215.242 35.45H217.092V37.3H215.242V35.45ZM215.242 37.3H217.092V39.15H215.242V37.3ZM215.242 39.15H217.092V41H215.242V39.15ZM213.392 39.15H215.242V41H213.392V39.15ZM213.392 37.3H215.242V39.15H213.392V37.3ZM213.392 35.45H215.242V37.3H213.392V35.45ZM213.392 33.6H215.242V35.45H213.392V33.6ZM213.392 31.75H215.242V33.6H213.392V31.75ZM213.392 29.9H215.242V31.75H213.392V29.9ZM213.392 28.05H215.242V29.9H213.392V28.05ZM213.392 26.2H215.242V28.05H213.392V26.2ZM213.392 24.35H215.242V26.2H213.392V24.35ZM211.542 35.45H213.392V37.3H211.542V35.45ZM211.542 37.3H213.392V39.15H211.542V37.3ZM209.692 37.3H211.542V39.15H209.692V37.3ZM207.842 37.3H209.692V39.15H207.842V37.3ZM205.992 37.3H207.842V39.15H205.992V37.3ZM205.992 39.15H207.842V41H205.992V39.15ZM207.842 39.15H209.692V41H207.842V39.15ZM209.692 39.15H211.542V41H209.692V39.15ZM204.142 37.3H205.992V39.15H204.142V37.3ZM202.292 37.3H204.142V39.15H202.292V37.3ZM202.292 35.45H204.142V37.3H202.292V35.45ZM202.292 33.6H204.142V35.45H202.292V33.6ZM202.292 31.75H204.142V33.6H202.292V31.75ZM202.292 29.9H204.142V31.75H202.292V29.9ZM202.292 28.05H204.142V29.9H202.292V28.05ZM202.292 26.2H204.142V28.05H202.292V26.2ZM202.292 24.35H204.142V26.2H202.292V24.35ZM202.292 22.5H204.142V24.35H202.292V22.5ZM200.442 22.5H202.292V24.35H200.442V22.5ZM200.442 24.35H202.292V26.2H200.442V24.35ZM200.442 26.2H202.292V28.05H200.442V26.2ZM200.442 28.05H202.292V29.9H200.442V28.05ZM200.442 29.9H202.292V31.75H200.442V29.9ZM200.442 31.75H202.292V33.6H200.442V31.75ZM200.442 33.6H202.292V35.45H200.442V33.6ZM200.442 35.45H202.292V37.3H200.442V35.45ZM204.142 39.15H205.992V41H204.142V39.15ZM204.142 35.45H205.992V37.3H204.142V35.45ZM221.327 22.5H223.177V24.35H221.327V22.5ZM223.177 22.5H225.027V24.35H223.177V22.5ZM223.177 24.35H225.027V26.2H223.177V24.35ZM223.177 26.2H225.027V28.05H223.177V26.2ZM223.177 28.05H225.027V29.9H223.177V28.05ZM223.177 29.9H225.027V31.75H223.177V29.9ZM223.177 31.75H225.027V33.6H223.177V31.75ZM223.177 33.6H225.027V35.45H223.177V33.6ZM223.177 35.45H225.027V37.3H223.177V35.45ZM223.177 37.3H225.027V39.15H223.177V37.3ZM223.177 39.15H225.027V41H223.177V39.15ZM221.327 31.75H223.177V33.6H221.327V31.75ZM221.327 29.9H223.177V31.75H221.327V29.9ZM221.327 28.05H223.177V29.9H221.327V28.05ZM221.327 26.2H223.177V28.05H221.327V26.2ZM221.327 24.35H223.177V26.2H221.327V24.35ZM221.327 33.6H223.177V35.45H221.327V33.6ZM221.327 35.45H223.177V37.3H221.327V35.45ZM221.327 37.3H223.177V39.15H221.327V37.3ZM221.327 39.15H223.177V41H221.327V39.15ZM225.027 26.2H226.877V28.05H225.027V26.2ZM225.027 24.35H226.877V26.2H225.027V24.35ZM226.877 24.35H228.727V26.2H226.877V24.35ZM226.877 22.5H228.727V24.35H226.877V22.5ZM228.727 22.5H230.577V24.35H228.727V22.5ZM230.577 22.5H232.427V24.35H230.577V22.5ZM230.577 24.35H232.427V26.2H230.577V24.35ZM232.427 24.35H234.277V26.2H232.427V24.35ZM232.427 26.2H234.277V28.05H232.427V26.2ZM234.277 26.2H236.127V28.05H234.277V26.2ZM234.277 28.05H236.127V29.9H234.277V28.05ZM234.277 29.9H236.127V31.75H234.277V29.9ZM234.277 31.75H236.127V33.6H234.277V31.75ZM234.277 33.6H236.127V35.45H234.277V33.6ZM234.277 35.45H236.127V37.3H234.277V35.45ZM234.277 37.3H236.127V39.15H234.277V37.3ZM234.277 39.15H236.127V41H234.277V39.15ZM236.127 39.15H237.977V41H236.127V39.15ZM236.127 37.3H237.977V39.15H236.127V37.3ZM236.127 35.45H237.977V37.3H236.127V35.45ZM236.127 33.6H237.977V35.45H236.127V33.6ZM236.127 31.75H237.977V33.6H236.127V31.75ZM236.127 29.9H237.977V31.75H236.127V29.9ZM236.127 28.05H237.977V29.9H236.127V28.05ZM234.277 24.35H236.127V26.2H234.277V24.35ZM232.427 22.5H234.277V24.35H232.427V22.5ZM228.727 24.35H230.577V26.2H228.727V24.35ZM236.127 26.2H237.977V28.05H236.127V26.2ZM242.211 29.9H244.061V31.75H242.211V29.9ZM242.211 31.75H244.061V33.6H242.211V31.75ZM244.061 35.45H245.911V37.3H244.061V35.45ZM244.061 33.6H245.911V35.45H244.061V33.6ZM244.061 31.75H245.911V33.6H244.061V31.75ZM244.061 29.9H245.911V31.75H244.061V29.9ZM244.061 28.05H245.911V29.9H244.061V28.05ZM244.061 26.2H245.911V28.05H244.061V26.2ZM247.761 22.5H249.611V24.35H247.761V22.5ZM249.611 22.5H251.461V24.35H249.611V22.5ZM251.461 22.5H253.311V24.35H251.461V22.5ZM251.461 24.35H253.311V26.2H251.461V24.35ZM253.311 24.35H255.161V26.2H253.311V24.35ZM245.911 24.35H247.761V26.2H245.911V24.35ZM247.761 24.35H249.611V26.2H247.761V24.35ZM249.611 24.35H251.461V26.2H249.611V24.35ZM245.911 26.2H247.761V28.05H245.911V26.2ZM253.311 22.5H255.161V24.35H253.311V22.5ZM255.161 24.35H257.011V26.2H255.161V24.35ZM257.011 26.2H258.861V28.05H257.011V26.2ZM257.011 28.05H258.861V29.9H257.011V28.05ZM257.011 29.9H258.861V31.75H257.011V29.9ZM257.011 31.75H258.861V33.6H257.011V31.75ZM255.161 31.75H257.011V33.6H255.161V31.75ZM253.311 31.75H255.161V33.6H253.311V31.75ZM251.461 31.75H253.311V33.6H251.461V31.75ZM249.611 31.75H251.461V33.6H249.611V31.75ZM247.761 31.75H249.611V33.6H247.761V31.75ZM245.911 29.9H247.761V31.75H245.911V29.9ZM247.761 29.9H249.611V31.75H247.761V29.9ZM249.611 29.9H251.461V31.75H249.611V29.9ZM251.461 29.9H253.311V31.75H251.461V29.9ZM253.311 29.9H255.161V31.75H253.311V29.9ZM255.161 29.9H257.011V31.75H255.161V29.9ZM245.911 31.75H247.761V33.6H245.911V31.75ZM244.061 37.3H245.911V39.15H244.061V37.3ZM245.911 37.3H247.761V39.15H245.911V37.3ZM245.911 35.45H247.761V37.3H245.911V35.45ZM247.761 39.15H249.611V41H247.761V39.15ZM247.761 37.3H249.611V39.15H247.761V37.3ZM249.611 39.15H251.461V41H249.611V39.15ZM251.461 39.15H253.311V41H251.461V39.15ZM251.461 37.3H253.311V39.15H251.461V37.3ZM249.611 37.3H251.461V39.15H249.611V37.3ZM253.311 37.3H255.161V39.15H253.311V37.3ZM253.311 39.15H255.161V41H253.311V39.15ZM255.161 37.3H257.011V39.15H255.161V37.3ZM257.011 37.3H258.861V39.15H257.011V37.3ZM257.011 24.35H258.861V26.2H257.011V24.35ZM255.161 26.2H257.011V28.05H255.161V26.2ZM258.861 28.05H260.711V29.9H258.861V28.05ZM258.861 29.9H260.711V31.75H258.861V29.9ZM242.211 28.05H244.061V29.9H242.211V28.05ZM244.061 24.35H245.911V26.2H244.061V24.35ZM255.161 35.45H257.011V37.3H255.161V35.45ZM257.011 35.45H258.861V37.3H257.011V35.45ZM258.861 35.45H260.711V37.3H258.861V35.45ZM242.211 33.6H244.061V35.45H242.211V33.6ZM273.033 22.5H274.883V24.35H273.033V22.5ZM274.883 22.5H276.733V24.35H274.883V22.5ZM274.883 24.35H276.733V26.2H274.883V24.35ZM274.883 26.2H276.733V28.05H274.883V26.2ZM274.883 31.75H276.733V33.6H274.883V31.75ZM274.883 33.6H276.733V35.45H274.883V33.6ZM274.883 35.45H276.733V37.3H274.883V35.45ZM274.883 37.3H276.733V39.15H274.883V37.3ZM274.883 39.15H276.733V41H274.883V39.15ZM274.883 41H276.733V42.85H274.883V41ZM274.883 42.85H276.733V44.7H274.883V42.85ZM274.883 44.7H276.733V46.55H274.883V44.7ZM274.883 46.55H276.733V48.4H274.883V46.55ZM273.033 44.7H274.883V46.55H273.033V44.7ZM273.033 42.85H274.883V44.7H273.033V42.85ZM273.033 41H274.883V42.85H273.033V41ZM273.033 39.15H274.883V41H273.033V39.15ZM273.033 37.3H274.883V39.15H273.033V37.3ZM273.033 35.45H274.883V37.3H273.033V35.45ZM273.033 33.6H274.883V35.45H273.033V33.6ZM273.033 31.75H274.883V33.6H273.033V31.75ZM273.033 29.9H274.883V31.75H273.033V29.9ZM273.033 28.05H274.883V29.9H273.033V28.05ZM273.033 26.2H274.883V28.05H273.033V26.2ZM273.033 24.35H274.883V26.2H273.033V24.35ZM274.883 28.05H276.733V29.9H274.883V28.05ZM274.883 29.9H276.733V31.75H274.883V29.9ZM273.033 46.55H274.883V48.4H273.033V46.55ZM276.733 26.2H278.583V28.05H276.733V26.2ZM276.733 24.35H278.583V26.2H276.733V24.35ZM278.583 24.35H280.433V26.2H278.583V24.35ZM280.433 24.35H282.283V26.2H280.433V24.35ZM280.433 22.5H282.283V24.35H280.433V22.5ZM282.283 22.5H284.133V24.35H282.283V22.5ZM284.133 22.5H285.983V24.35H284.133V22.5ZM284.133 24.35H285.983V26.2H284.133V24.35ZM285.983 24.35H287.833V26.2H285.983V24.35ZM287.833 26.2H289.683V28.05H287.833V26.2ZM287.833 28.05H289.683V29.9H287.833V28.05ZM289.683 29.9H291.533V31.75H289.683V29.9ZM289.683 31.75H291.533V33.6H289.683V31.75ZM289.683 33.6H291.533V35.45H289.683V33.6ZM287.833 33.6H289.683V35.45H287.833V33.6ZM289.683 28.05H291.533V29.9H289.683V28.05ZM287.833 35.45H289.683V37.3H287.833V35.45ZM285.983 37.3H287.833V39.15H285.983V37.3ZM284.133 39.15H285.983V41H284.133V39.15ZM282.283 39.15H284.133V41H282.283V39.15ZM280.433 39.15H282.283V41H280.433V39.15ZM280.433 37.3H282.283V39.15H280.433V37.3ZM282.283 37.3H284.133V39.15H282.283V37.3ZM284.133 37.3H285.983V39.15H284.133V37.3ZM285.983 35.45H287.833V37.3H285.983V35.45ZM278.583 37.3H280.433V39.15H278.583V37.3ZM276.733 37.3H278.583V39.15H276.733V37.3ZM276.733 35.45H278.583V37.3H276.733V35.45ZM282.283 24.35H284.133V26.2H282.283V24.35ZM285.983 26.2H287.833V28.05H285.983V26.2ZM287.833 29.9H289.683V31.75H287.833V29.9ZM287.833 31.75H289.683V33.6H287.833V31.75ZM278.583 39.15H280.433V41H278.583V39.15ZM278.583 22.5H280.433V24.35H278.583V22.5ZM287.833 24.35H289.683V26.2H287.833V24.35ZM287.833 37.3H289.683V39.15H287.833V37.3ZM294.64 26.2H296.49V28.05H294.64V26.2ZM296.49 26.2H298.34V28.05H296.49V26.2ZM296.49 28.05H298.34V29.9H296.49V28.05ZM298.34 26.2H300.19V28.05H298.34V26.2ZM298.34 24.35H300.19V26.2H298.34V24.35ZM300.19 24.35H302.04V26.2H300.19V24.35ZM302.04 24.35H303.89V26.2H302.04V24.35ZM302.04 22.5H303.89V24.35H302.04V22.5ZM300.19 22.5H302.04V24.35H300.19V22.5ZM296.49 24.35H298.34V26.2H296.49V24.35ZM303.89 24.35H305.74V26.2H303.89V24.35ZM305.74 24.35H307.59V26.2H305.74V24.35ZM303.89 22.5H305.74V24.35H303.89V22.5ZM305.74 26.2H307.59V28.05H305.74V26.2ZM307.59 26.2H309.44V28.05H307.59V26.2ZM307.59 28.05H309.44V29.9H307.59V28.05ZM307.59 29.9H309.44V31.75H307.59V29.9ZM307.59 31.75H309.44V33.6H307.59V31.75ZM307.59 33.6H309.44V35.45H307.59V33.6ZM307.59 35.45H309.44V37.3H307.59V35.45ZM305.74 29.9H307.59V31.75H305.74V29.9ZM305.74 28.05H307.59V29.9H305.74V28.05ZM305.74 31.75H307.59V33.6H305.74V31.75ZM305.74 35.45H307.59V37.3H305.74V35.45ZM307.59 37.3H309.44V39.15H307.59V37.3ZM307.59 39.15H309.44V41H307.59V39.15ZM309.44 39.15H311.29V41H309.44V39.15ZM309.44 37.3H311.29V39.15H309.44V37.3ZM305.74 37.3H307.59V39.15H305.74V37.3ZM303.89 37.3H305.74V39.15H303.89V37.3ZM302.04 39.15H303.89V41H302.04V39.15ZM300.19 39.15H302.04V41H300.19V39.15ZM298.34 39.15H300.19V41H298.34V39.15ZM294.64 35.45H296.49V37.3H294.64V35.45ZM296.49 33.6H298.34V35.45H296.49V33.6ZM296.49 31.75H298.34V33.6H296.49V31.75ZM298.34 31.75H300.19V33.6H298.34V31.75ZM300.19 31.75H302.04V33.6H300.19V31.75ZM302.04 31.75H303.89V33.6H302.04V31.75ZM302.04 29.9H303.89V31.75H302.04V29.9ZM303.89 29.9H305.74V31.75H303.89V29.9ZM300.19 29.9H302.04V31.75H300.19V29.9ZM296.49 35.45H298.34V37.3H296.49V35.45ZM298.34 37.3H300.19V39.15H298.34V37.3ZM303.89 39.15H305.74V41H303.89V39.15ZM298.34 33.6H300.19V35.45H298.34V33.6ZM305.74 33.6H307.59V35.45H305.74V33.6ZM294.64 37.3H296.49V39.15H294.64V37.3ZM296.49 37.3H298.34V39.15H296.49V37.3ZM296.49 39.15H298.34V41H296.49V39.15ZM294.64 33.6H296.49V35.45H294.64V33.6ZM314.369 22.5H316.219V24.35H314.369V22.5ZM316.219 22.5H318.069V24.35H316.219V22.5ZM316.219 24.35H318.069V26.2H316.219V24.35ZM316.219 26.2H318.069V28.05H316.219V26.2ZM316.219 28.05H318.069V29.9H316.219V28.05ZM316.219 29.9H318.069V31.75H316.219V29.9ZM316.219 31.75H318.069V33.6H316.219V31.75ZM316.219 33.6H318.069V35.45H316.219V33.6ZM316.219 35.45H318.069V37.3H316.219V35.45ZM316.219 37.3H318.069V39.15H316.219V37.3ZM316.219 39.15H318.069V41H316.219V39.15ZM314.369 39.15H316.219V41H314.369V39.15ZM314.369 37.3H316.219V39.15H314.369V37.3ZM314.369 35.45H316.219V37.3H314.369V35.45ZM314.369 33.6H316.219V35.45H314.369V33.6ZM314.369 31.75H316.219V33.6H314.369V31.75ZM314.369 29.9H316.219V31.75H314.369V29.9ZM314.369 28.05H316.219V29.9H314.369V28.05ZM314.369 26.2H316.219V28.05H314.369V26.2ZM314.369 24.35H316.219V26.2H314.369V24.35ZM318.069 26.2H319.919V28.05H318.069V26.2ZM319.919 24.35H321.769V26.2H319.919V24.35ZM321.769 24.35H323.619V26.2H321.769V24.35ZM321.769 22.5H323.619V24.35H321.769V22.5ZM323.619 22.5H325.469V24.35H323.619V22.5ZM325.469 22.5H327.319V24.35H325.469V22.5ZM318.069 24.35H319.919V26.2H318.069V24.35ZM319.919 22.5H321.769V24.35H319.919V22.5ZM323.619 24.35H325.469V26.2H323.619V24.35ZM325.469 24.35H327.319V26.2H325.469V24.35ZM327.319 24.35H329.169V26.2H327.319V24.35ZM325.469 26.2H327.319V28.05H325.469V26.2ZM333.642 18.8H335.492V20.65H333.642V18.8ZM333.642 20.65H335.492V22.5H333.642V20.65ZM333.642 22.5H335.492V24.35H333.642V22.5ZM333.642 24.35H335.492V26.2H333.642V24.35ZM333.642 26.2H335.492V28.05H333.642V26.2ZM333.642 28.05H335.492V29.9H333.642V28.05ZM333.642 29.9H335.492V31.75H333.642V29.9ZM333.642 31.75H335.492V33.6H333.642V31.75ZM333.642 33.6H335.492V35.45H333.642V33.6ZM333.642 35.45H335.492V37.3H333.642V35.45ZM331.792 35.45H333.642V37.3H331.792V35.45ZM331.792 33.6H333.642V35.45H331.792V33.6ZM331.792 31.75H333.642V33.6H331.792V31.75ZM331.792 29.9H333.642V31.75H331.792V29.9ZM331.792 28.05H333.642V29.9H331.792V28.05ZM331.792 26.2H333.642V28.05H331.792V26.2ZM331.792 24.35H333.642V26.2H331.792V24.35ZM331.792 22.5H333.642V24.35H331.792V22.5ZM329.942 22.5H331.792V24.35H329.942V22.5ZM329.942 24.35H331.792V26.2H329.942V24.35ZM335.492 22.5H337.342V24.35H335.492V22.5ZM337.342 22.5H339.192V24.35H337.342V22.5ZM339.192 22.5H341.042V24.35H339.192V22.5ZM339.192 24.35H341.042V26.2H339.192V24.35ZM337.342 24.35H339.192V26.2H337.342V24.35ZM335.492 24.35H337.342V26.2H335.492V24.35ZM337.342 37.3H339.192V39.15H337.342V37.3ZM335.492 39.15H337.342V41H335.492V39.15ZM333.642 37.3H335.492V39.15H333.642V37.3ZM331.792 37.3H333.642V39.15H331.792V37.3ZM333.642 39.15H335.492V41H333.642V39.15ZM337.342 39.15H339.192V41H337.342V39.15ZM335.492 37.3H337.342V39.15H335.492V37.3ZM337.342 35.45H339.192V37.3H337.342V35.45ZM339.192 37.3H341.042V39.15H339.192V37.3ZM331.792 20.65H333.642V22.5H331.792V20.65ZM348.239 22.5H350.089V24.35H348.239V22.5ZM346.389 22.5H348.239V24.35H346.389V22.5ZM348.239 24.35H350.089V26.2H348.239V24.35ZM348.239 26.2H350.089V28.05H348.239V26.2ZM346.389 26.2H348.239V28.05H346.389V26.2ZM346.389 28.05H348.239V29.9H346.389V28.05ZM346.389 29.9H348.239V31.75H346.389V29.9ZM346.389 31.75H348.239V33.6H346.389V31.75ZM346.389 33.6H348.239V35.45H346.389V33.6ZM346.389 35.45H348.239V37.3H346.389V35.45ZM346.389 37.3H348.239V39.15H346.389V37.3ZM346.389 39.15H348.239V41H346.389V39.15ZM348.239 37.3H350.089V39.15H348.239V37.3ZM348.239 35.45H350.089V37.3H348.239V35.45ZM348.239 33.6H350.089V35.45H348.239V33.6ZM348.239 29.9H350.089V31.75H348.239V29.9ZM348.239 28.05H350.089V29.9H348.239V28.05ZM346.389 24.35H348.239V26.2H346.389V24.35ZM348.239 31.75H350.089V33.6H348.239V31.75ZM348.239 39.15H350.089V41H348.239V39.15ZM346.389 16.95H348.239V18.8H346.389V16.95ZM348.239 16.95H350.089V18.8H348.239V16.95ZM348.239 15.1H350.089V16.95H348.239V15.1ZM346.389 15.1H348.239V16.95H346.389V15.1ZM352.958 29.9H354.808V31.75H352.958V29.9ZM352.958 31.75H354.808V33.6H352.958V31.75ZM354.808 35.45H356.658V37.3H354.808V35.45ZM354.808 33.6H356.658V35.45H354.808V33.6ZM354.808 31.75H356.658V33.6H354.808V31.75ZM354.808 29.9H356.658V31.75H354.808V29.9ZM354.808 28.05H356.658V29.9H354.808V28.05ZM354.808 26.2H356.658V28.05H354.808V26.2ZM358.508 22.5H360.358V24.35H358.508V22.5ZM360.358 22.5H362.208V24.35H360.358V22.5ZM362.208 22.5H364.058V24.35H362.208V22.5ZM362.208 24.35H364.058V26.2H362.208V24.35ZM364.058 24.35H365.908V26.2H364.058V24.35ZM356.658 24.35H358.508V26.2H356.658V24.35ZM358.508 24.35H360.358V26.2H358.508V24.35ZM360.358 24.35H362.208V26.2H360.358V24.35ZM356.658 26.2H358.508V28.05H356.658V26.2ZM364.058 22.5H365.908V24.35H364.058V22.5ZM365.908 24.35H367.758V26.2H365.908V24.35ZM367.758 26.2H369.608V28.05H367.758V26.2ZM367.758 28.05H369.608V29.9H367.758V28.05ZM367.758 29.9H369.608V31.75H367.758V29.9ZM367.758 31.75H369.608V33.6H367.758V31.75ZM365.908 31.75H367.758V33.6H365.908V31.75ZM364.058 31.75H365.908V33.6H364.058V31.75ZM362.208 31.75H364.058V33.6H362.208V31.75ZM360.358 31.75H362.208V33.6H360.358V31.75ZM358.508 31.75H360.358V33.6H358.508V31.75ZM356.658 29.9H358.508V31.75H356.658V29.9ZM358.508 29.9H360.358V31.75H358.508V29.9ZM360.358 29.9H362.208V31.75H360.358V29.9ZM362.208 29.9H364.058V31.75H362.208V29.9ZM364.058 29.9H365.908V31.75H364.058V29.9ZM365.908 29.9H367.758V31.75H365.908V29.9ZM356.658 31.75H358.508V33.6H356.658V31.75ZM354.808 37.3H356.658V39.15H354.808V37.3ZM356.658 37.3H358.508V39.15H356.658V37.3ZM356.658 35.45H358.508V37.3H356.658V35.45ZM358.508 39.15H360.358V41H358.508V39.15ZM358.508 37.3H360.358V39.15H358.508V37.3ZM360.358 39.15H362.208V41H360.358V39.15ZM362.208 39.15H364.058V41H362.208V39.15ZM362.208 37.3H364.058V39.15H362.208V37.3ZM360.358 37.3H362.208V39.15H360.358V37.3ZM364.058 37.3H365.908V39.15H364.058V37.3ZM364.058 39.15H365.908V41H364.058V39.15ZM365.908 37.3H367.758V39.15H365.908V37.3ZM367.758 37.3H369.608V39.15H367.758V37.3ZM367.758 24.35H369.608V26.2H367.758V24.35ZM365.908 26.2H367.758V28.05H365.908V26.2ZM369.608 28.05H371.458V29.9H369.608V28.05ZM369.608 29.9H371.458V31.75H369.608V29.9ZM352.958 28.05H354.808V29.9H352.958V28.05ZM354.808 24.35H356.658V26.2H354.808V24.35ZM365.908 35.45H367.758V37.3H365.908V35.45ZM367.758 35.45H369.608V37.3H367.758V35.45ZM369.608 35.45H371.458V37.3H369.608V35.45ZM352.958 33.6H354.808V35.45H352.958V33.6Z" fill="black"/>
<g filter="url(#filter0_d_300_23)">
<path d="M9 52H708V418.4C708 427.361 708 431.841 706.256 435.264C704.722 438.274 702.274 440.722 699.264 442.256C695.841 444 691.361 444 682.4 444H34.6C25.6392 444 21.1587 444 17.7362 442.256C14.7256 440.722 12.2779 438.274 10.7439 435.264C9 431.841 9 427.361 9 418.4V52Z" fill="#252525" fill-opacity="0.7" shape-rendering="crispEdges"/>
</g>
<defs>
<filter id="filter0_d_300_23" x="0.7" y="47.7" width="715.6" height="408.6" filterUnits="userSpaceOnUse" color-interpolation-filters="sRGB">
<feFlood flood-opacity="0" result="BackgroundImageFix"/>
<feColorMatrix in="SourceAlpha" type="matrix" values="0 0 0 0 0 0 0 0 0 0 0 0 0 0 0 0 0 0 127 0" result="hardAlpha"/>
<feOffset dy="4"/>
<feGaussianBlur stdDeviation="4.15"/>
<feComposite in2="hardAlpha" operator="out"/>
<feColorMatrix type="matrix" values="0 0 0 0 0 0 0 0 0 0 0 0 0 0 0 0 0 0 0.25 0"/>
<feBlend mode="normal" in2="BackgroundImageFix" result="effect1_dropShadow_300_23"/>
<feBlend mode="normal" in="SourceGraphic" in2="effect1_dropShadow_300_23" result="shape"/>
</filter>
</defs>
</svg>
